<?xml version="1.0" encoding="UTF-8"?>
<svg width="700pt" height="700pt" version="1.1" viewBox="0 0 700 700" xmlns="http://www.w3.org/2000/svg" xmlns:xlink="http://www.w3.org/1999/xlink">


 <defs>
  <symbol id="t" overflow="visible">
   <path d="m18.766-1.125c-0.96875 0.5-1.9805 0.875-3.0312 1.125-1.043 0.25781-2.1367 0.39062-3.2812 0.39062-3.3984 0-6.0898-0.94531-8.0781-2.8438-1.9922-1.9062-2.9844-4.4844-2.9844-7.7344 0-3.2578 0.99219-5.8359 2.9844-7.7344 1.9883-1.9062 4.6797-2.8594 8.0781-2.8594 1.1445 0 2.2383 0.13281 3.2812 0.39062 1.0508 0.25 2.0625 0.625 3.0312 1.125v4.2188c-0.98047-0.65625-1.9453-1.1406-2.8906-1.4531-0.94922-0.3125-1.9492-0.46875-3-0.46875-1.875 0-3.3516 0.60547-4.4219 1.8125-1.0742 1.1992-1.6094 2.8555-1.6094 4.9688 0 2.1055 0.53516 3.7617 1.6094 4.9688 1.0703 1.1992 2.5469 1.7969 4.4219 1.7969 1.0508 0 2.0508-0.14844 3-0.45312 0.94531-0.3125 1.9102-0.80078 2.8906-1.4688z"/>
  </symbol>
<symbol id="b" overflow="visible">
   <path d="m13.734-11.141c-0.4375-0.19531-0.87109-0.34375-1.2969-0.4375-0.41797-0.10156-0.83984-0.15625-1.2656-0.15625-1.2617 0-2.2305 0.40625-2.9062 1.2188-0.67969 0.80469-1.0156 1.9531-1.0156 3.4531v7.0625h-4.8906v-15.312h4.8906v2.5156c0.625-1 1.3438-1.7266 2.1562-2.1875 0.82031-0.46875 1.8008-0.70312 2.9375-0.70312 0.16406 0 0.34375 0.011719 0.53125 0.03125 0.19531 0.011719 0.47656 0.039062 0.84375 0.078125z"/>
  </symbol>
  <symbol id="a" overflow="visible">
   <path d="m17.641-7.7031v1.4062h-11.453c0.125 1.1484 0.53906 2.0078 1.25 2.5781 0.70703 0.57422 1.7031 0.85938 2.9844 0.85938 1.0312 0 2.082-0.14844 3.1562-0.45312 1.082-0.3125 2.1914-0.77344 3.3281-1.3906v3.7656c-1.1562 0.4375-2.3125 0.76562-3.4688 0.98438-1.1562 0.22656-2.3125 0.34375-3.4688 0.34375-2.7734 0-4.9297-0.70312-6.4688-2.1094-1.5312-1.4062-2.2969-3.3789-2.2969-5.9219 0-2.5 0.75391-4.4609 2.2656-5.8906 1.5078-1.4375 3.582-2.1562 6.2188-2.1562 2.4062 0 4.332 0.73047 5.7812 2.1875 1.4453 1.4492 2.1719 3.3828 2.1719 5.7969zm-5.0312-1.625c0-0.92578-0.27344-1.6719-0.8125-2.2344-0.54297-0.57031-1.25-0.85938-2.125-0.85938-0.94922 0-1.7188 0.26562-2.3125 0.79688s-0.96484 1.2969-1.1094 2.2969z"/>
  </symbol>
  <symbol id="k" overflow="visible">
   <path d="m9.2188-6.8906c-1.0234 0-1.793 0.17188-2.3125 0.51562-0.51172 0.34375-0.76562 0.85547-0.76562 1.5312 0 0.625 0.20703 1.1172 0.625 1.4688 0.41406 0.34375 0.98828 0.51562 1.7188 0.51562 0.92578 0 1.7031-0.32812 2.3281-0.98438 0.63281-0.66406 0.95312-1.4922 0.95312-2.4844v-0.5625zm7.4688-1.8438v8.7344h-4.9219v-2.2656c-0.65625 0.92969-1.3984 1.6055-2.2188 2.0312-0.82422 0.41406-1.8242 0.625-3 0.625-1.5859 0-2.8711-0.45703-3.8594-1.375-0.99219-0.92578-1.4844-2.1289-1.4844-3.6094 0-1.7891 0.61328-3.1016 1.8438-3.9375 1.2383-0.84375 3.1797-1.2656 5.8281-1.2656h2.8906v-0.39062c0-0.76953-0.30859-1.332-0.92188-1.6875-0.61719-0.36328-1.5703-0.54688-2.8594-0.54688-1.0547 0-2.0312 0.10547-2.9375 0.3125-0.89844 0.21094-1.7305 0.52344-2.5 0.9375v-3.7344c1.0391-0.25 2.0859-0.44141 3.1406-0.57812 1.0625-0.13281 2.125-0.20312 3.1875-0.20312 2.7578 0 4.75 0.54688 5.9688 1.6406 1.2266 1.0859 1.8438 2.8555 1.8438 5.3125z"/>
  </symbol>
  <symbol id="c" overflow="visible">
   <path d="m7.7031-19.656v4.3438h5.0469v3.5h-5.0469v6.5c0 0.71094 0.14062 1.1875 0.42188 1.4375s0.83594 0.375 1.6719 0.375h2.5156v3.5h-4.1875c-1.9375 0-3.3125-0.39844-4.125-1.2031-0.80469-0.8125-1.2031-2.1797-1.2031-4.1094v-6.5h-2.4219v-3.5h2.4219v-4.3438z"/>
  </symbol>
  <symbol id="g" overflow="visible">
   <path d="m12.766-13.078v-8.2031h4.9219v21.281h-4.9219v-2.2188c-0.66797 0.90625-1.4062 1.5703-2.2188 1.9844s-1.7578 0.625-2.8281 0.625c-1.8867 0-3.4336-0.75-4.6406-2.25-1.2109-1.5-1.8125-3.4258-1.8125-5.7812 0-2.3633 0.60156-4.2969 1.8125-5.7969 1.207-1.5 2.7539-2.25 4.6406-2.25 1.0625 0 2 0.21484 2.8125 0.64062 0.82031 0.42969 1.5664 1.0859 2.2344 1.9688zm-3.2188 9.9219c1.0391 0 1.8359-0.37891 2.3906-1.1406 0.55078-0.76953 0.82812-1.8828 0.82812-3.3438 0-1.457-0.27734-2.5664-0.82812-3.3281-0.55469-0.76953-1.3516-1.1562-2.3906-1.1562-1.043 0-1.8398 0.38672-2.3906 1.1562-0.55469 0.76172-0.82812 1.8711-0.82812 3.3281 0 1.4609 0.27344 2.5742 0.82812 3.3438 0.55078 0.76172 1.3477 1.1406 2.3906 1.1406z"/>
  </symbol>
  <symbol id="j" overflow="visible">
   <path d="m10.5-3.1562c1.0508 0 1.8516-0.37891 2.4062-1.1406 0.55078-0.76953 0.82812-1.8828 0.82812-3.3438 0-1.457-0.27734-2.5664-0.82812-3.3281-0.55469-0.76953-1.3555-1.1562-2.4062-1.1562-1.0547 0-1.8594 0.38672-2.4219 1.1562-0.55469 0.77344-0.82812 1.8828-0.82812 3.3281 0 1.4492 0.27344 2.5586 0.82812 3.3281 0.5625 0.77344 1.3672 1.1562 2.4219 1.1562zm-3.25-9.9219c0.67578-0.88281 1.4219-1.5391 2.2344-1.9688 0.82031-0.42578 1.7656-0.64062 2.8281-0.64062 1.8945 0 3.4453 0.75 4.6562 2.25 1.207 1.5 1.8125 3.4336 1.8125 5.7969 0 2.3555-0.60547 4.2812-1.8125 5.7812-1.2109 1.5-2.7617 2.25-4.6562 2.25-1.0625 0-2.0078-0.21094-2.8281-0.625-0.8125-0.42578-1.5586-1.0859-2.2344-1.9844v2.2188h-4.8906v-21.281h4.8906z"/>
  </symbol>
  <symbol id="f" overflow="visible">
   <path d="m0.34375-15.312h4.8906l4.125 10.391 3.5-10.391h4.8906l-6.4375 16.766c-0.64844 1.6953-1.4023 2.8828-2.2656 3.5625-0.86719 0.6875-2 1.0312-3.4062 1.0312h-2.8438v-3.2188h1.5312c0.83203 0 1.4375-0.13672 1.8125-0.40625 0.38281-0.26172 0.67969-0.73047 0.89062-1.4062l0.14062-0.42188z"/>
  </symbol>
  <symbol id="e" overflow="visible">
   <path d="m10.75-12.516c0.82031 0 1.4453-0.17969 1.875-0.54688 0.4375-0.36328 0.65625-0.89844 0.65625-1.6094 0-0.69531-0.21875-1.2266-0.65625-1.5938-0.42969-0.375-1.0547-0.5625-1.875-0.5625h-2.9219v4.3125zm0.17188 8.9375c1.0625 0 1.8594-0.22266 2.3906-0.67188 0.53125-0.44531 0.79688-1.125 0.79688-2.0312 0-0.88281-0.26562-1.5469-0.79688-1.9844-0.52344-0.4375-1.3203-0.65625-2.3906-0.65625h-3.0938v5.3438zm4.8906-7.3438c1.1328 0.32422 2.0078 0.92969 2.625 1.8125 0.625 0.88672 0.9375 1.9688 0.9375 3.25 0 1.9688-0.66797 3.4375-2 4.4062-1.3359 0.96875-3.3555 1.4531-6.0625 1.4531h-8.7344v-20.406h7.8906c2.832 0 4.8828 0.42969 6.1562 1.2812 1.2812 0.85547 1.9219 2.2266 1.9219 4.1094 0 1-0.23438 1.8516-0.70312 2.5469-0.46875 0.6875-1.1484 1.2031-2.0312 1.5469z"/>
  </symbol>
  <symbol id="i" overflow="visible">
   <path d="m17.75-9.3281v9.3281h-4.9219v-7.1406c0-1.3203-0.03125-2.2344-0.09375-2.7344s-0.16797-0.86719-0.3125-1.1094c-0.1875-0.3125-0.44922-0.55469-0.78125-0.73438-0.32422-0.17578-0.69531-0.26562-1.1094-0.26562-1.0234 0-1.8242 0.39844-2.4062 1.1875-0.58594 0.78125-0.875 1.8711-0.875 3.2656v7.5312h-4.8906v-15.312h4.8906v2.2344c0.73828-0.88281 1.5195-1.5391 2.3438-1.9688 0.83203-0.42578 1.75-0.64062 2.75-0.64062 1.7695 0 3.1133 0.54688 4.0312 1.6406 0.91406 1.0859 1.375 2.6562 1.375 4.7188z"/>
  </symbol>
  <symbol id="h" overflow="visible">
   <path d="m14.719-14.828v3.9844c-0.65625-0.45703-1.3242-0.79688-2-1.0156-0.66797-0.21875-1.3594-0.32812-2.0781-0.32812-1.3672 0-2.4336 0.40234-3.2031 1.2031-0.76172 0.79297-1.1406 1.9062-1.1406 3.3438 0 1.4297 0.37891 2.543 1.1406 3.3438 0.76953 0.79297 1.8359 1.1875 3.2031 1.1875 0.75781 0 1.4844-0.10938 2.1719-0.32812 0.6875-0.22656 1.3203-0.56641 1.9062-1.0156v4c-0.76172 0.28125-1.5391 0.48828-2.3281 0.625-0.78125 0.14453-1.5742 0.21875-2.375 0.21875-2.7617 0-4.9219-0.70703-6.4844-2.125-1.5547-1.4141-2.3281-3.3828-2.3281-5.9062 0-2.5312 0.77344-4.5039 2.3281-5.9219 1.5625-1.4141 3.7227-2.125 6.4844-2.125 0.80078 0 1.5938 0.074219 2.375 0.21875 0.78125 0.13672 1.5547 0.35156 2.3281 0.64062z"/>
  </symbol>
  <symbol id="s" overflow="visible">
   <path d="m1.5938-15.312h13.359v3.4219l-8.0625 8.3906h8.0625v3.5h-13.688v-3.4219l8.0625-8.3906h-7.7344z"/>
  </symbol>
  <symbol id="r" overflow="visible">
   <path d="m12.422-21.281v3.2188h-2.7031c-0.6875 0-1.1719 0.125-1.4531 0.375-0.27344 0.25-0.40625 0.6875-0.40625 1.3125v1.0625h4.1875v3.5h-4.1875v11.812h-4.8906v-11.812h-2.4375v-3.5h2.4375v-1.0625c0-1.6641 0.46094-2.8984 1.3906-3.7031 0.92578-0.80078 2.3672-1.2031 4.3281-1.2031z"/>
  </symbol>
  <symbol id="d" overflow="visible">
   <path d="m9.6406-12.188c-1.0859 0-1.9141 0.39062-2.4844 1.1719-0.57422 0.78125-0.85938 1.9062-0.85938 3.375s0.28516 2.5938 0.85938 3.375c0.57031 0.77344 1.3984 1.1562 2.4844 1.1562 1.0625 0 1.875-0.38281 2.4375-1.1562 0.57031-0.78125 0.85938-1.9062 0.85938-3.375s-0.28906-2.5938-0.85938-3.375c-0.5625-0.78125-1.375-1.1719-2.4375-1.1719zm0-3.5c2.6328 0 4.6914 0.71484 6.1719 2.1406 1.4766 1.418 2.2188 3.3867 2.2188 5.9062 0 2.5117-0.74219 4.4805-2.2188 5.9062-1.4805 1.418-3.5391 2.125-6.1719 2.125-2.6484 0-4.7148-0.70703-6.2031-2.125-1.4922-1.4258-2.2344-3.3945-2.2344-5.9062 0-2.5195 0.74219-4.4883 2.2344-5.9062 1.4883-1.4258 3.5547-2.1406 6.2031-2.1406z"/>
  </symbol>
  <symbol id="q" overflow="visible">
   <path d="m16.547-12.766c0.61328-0.94531 1.3477-1.6719 2.2031-2.1719 0.85156-0.5 1.7891-0.75 2.8125-0.75 1.7578 0 3.0977 0.54688 4.0156 1.6406 0.92578 1.0859 1.3906 2.6562 1.3906 4.7188v9.3281h-4.9219v-7.9844-0.35938c0.007813-0.13281 0.015625-0.32031 0.015625-0.5625 0-1.082-0.16406-1.8633-0.48438-2.3438-0.3125-0.48828-0.82422-0.73438-1.5312-0.73438-0.92969 0-1.6484 0.38672-2.1562 1.1562-0.51172 0.76172-0.77344 1.8672-0.78125 3.3125v7.5156h-4.9219v-7.9844c0-1.6953-0.14844-2.7852-0.4375-3.2656-0.29297-0.48828-0.8125-0.73438-1.5625-0.73438-0.9375 0-1.6641 0.38672-2.1719 1.1562-0.51172 0.76172-0.76562 1.8594-0.76562 3.2969v7.5312h-4.9219v-15.312h4.9219v2.2344c0.60156-0.86328 1.2891-1.5156 2.0625-1.9531 0.78125-0.4375 1.6406-0.65625 2.5781-0.65625 1.0625 0 2 0.25781 2.8125 0.76562 0.8125 0.51172 1.4258 1.2305 1.8438 2.1562z"/>
  </symbol>
  <symbol id="p" overflow="visible">
   <path d="m17.75-9.3281v9.3281h-4.9219v-7.1094c0-1.3438-0.03125-2.2656-0.09375-2.7656s-0.16797-0.86719-0.3125-1.1094c-0.1875-0.3125-0.44922-0.55469-0.78125-0.73438-0.32422-0.17578-0.69531-0.26562-1.1094-0.26562-1.0234 0-1.8242 0.39844-2.4062 1.1875-0.58594 0.78125-0.875 1.8711-0.875 3.2656v7.5312h-4.8906v-21.281h4.8906v8.2031c0.73828-0.88281 1.5195-1.5391 2.3438-1.9688 0.83203-0.42578 1.75-0.64062 2.75-0.64062 1.7695 0 3.1133 0.54688 4.0312 1.6406 0.91406 1.0859 1.375 2.6562 1.375 4.7188z"/>
  </symbol>
  <symbol id="o" overflow="visible">
   <path d="m2.5781-20.406h5.875l7.4219 14v-14h4.9844v20.406h-5.875l-7.4219-14v14h-4.9844z"/>
  </symbol>
  <symbol id="n" overflow="visible">
   <path d="m2.1875-5.9688v-9.3438h4.9219v1.5312c0 0.83594-0.007813 1.875-0.015625 3.125-0.011719 1.25-0.015625 2.0859-0.015625 2.5 0 1.2422 0.03125 2.1328 0.09375 2.6719 0.070313 0.54297 0.17969 0.93359 0.32812 1.1719 0.20703 0.32422 0.47266 0.57422 0.79688 0.75 0.32031 0.16797 0.69141 0.25 1.1094 0.25 1.0195 0 1.8203-0.39062 2.4062-1.1719 0.58203-0.78125 0.875-1.8672 0.875-3.2656v-7.5625h4.8906v15.312h-4.8906v-2.2188c-0.74219 0.89844-1.5234 1.5586-2.3438 1.9844-0.82422 0.41406-1.7344 0.625-2.7344 0.625-1.7617 0-3.1055-0.53906-4.0312-1.625-0.92969-1.082-1.3906-2.6602-1.3906-4.7344z"/>
  </symbol>
  <symbol id="m" overflow="visible">
   <path d="m2.5781-20.406h8.7344c2.5938 0 4.582 0.57812 5.9688 1.7344 1.3945 1.1484 2.0938 2.7891 2.0938 4.9219 0 2.1367-0.69922 3.7812-2.0938 4.9375-1.3867 1.1562-3.375 1.7344-5.9688 1.7344h-3.4844v7.0781h-5.25zm5.25 3.8125v5.7031h2.9219c1.0195 0 1.8047-0.25 2.3594-0.75 0.5625-0.5 0.84375-1.2031 0.84375-2.1094 0-0.91406-0.28125-1.6172-0.84375-2.1094-0.55469-0.48828-1.3398-0.73438-2.3594-0.73438z"/>
  </symbol>
  <symbol id="l" overflow="visible">
   <path d="m2.3594-15.312h4.8906v15.031c0 2.0508-0.49609 3.6172-1.4844 4.7031-0.98047 1.082-2.4062 1.625-4.2812 1.625h-2.4219v-3.2188h0.85938c0.92578 0 1.5625-0.21094 1.9062-0.625 0.35156-0.41797 0.53125-1.2461 0.53125-2.4844zm0-5.9688h4.8906v4h-4.8906z"/>
  </symbol>
 </defs>
 <g>
  <path d="m161.36 128.25h0.027343-0.027343m-0.35547-2.1992c-1.4453 0.10937-4.0195 3.0625-2.5625 4.293l0.46094 0.76953c0.10937 0.023437 0.20703 0.035156 0.29297 0.035156 1.0547 0 0.66797-1.6914 0.78516-2.5039 0.058594-0.40234 0.011719-1.0312 0.16797-1.3945 0.24609-0.55078 1.2852-0.082031 0.85547-1.1992z"/>
  <path d="m563.68 211.82h0.027344-0.027344m-0.92969-1.8984c-0.54297 0-0.79297 0.51562-1.2344 0.97266-0.63281 0.66016-1.3281 0.95703-2.1406 1.3242-0.78125 0.35547-1.3945 0.82812-2.2383 0.91406-0.75391 0.074219-1.2695 0.019531-1.9961 0.30859-1.3008 0.51953-2.7266 1.4141-3.4766 2.6055-0.5625 0.89844-1.7656 2.7031-0.70312 2.7031 0.22266 0 0.54297-0.078125 0.98828-0.25781l-0.5625 0.375c0.054688 0.003906 0.10938 0.007812 0.16406 0.007812 1.3867 0 2.543-1.4883 3.6016-2.1719 1.0234-0.66406 2.1953-0.87109 3.293-1.2656 1.2227-0.4375 2.4414-0.72266 2.7188-2.0781 0.14453-0.70312 0.17578-0.94531 0.62891-1.5312 0.42969-0.5625 1.3125-1.0781 1.4258-1.8008-0.18359-0.074219-0.33594-0.10547-0.46875-0.10547z"/>
  <path d="m564.99 212.77c-0.003907 0.003906-0.011719 0.007812-0.019532 0.011718 0.007813-0.003906 0.011719-0.007812 0.019532-0.011718m1.1797-2.7227c-0.67969 0-1.8359 0.49609-2.3828 0.83594-0.48047 0.29688-1.3516 1.6719-0.83984 1.6719 0.097656 0 0.24609-0.050782 0.46094-0.16797h0.09375c0.75781-0.32422 2.6719-1.5312 2.6914-2.3398h-0.023437z"/>
  <path d="m426.96 156.39c-0.83203 0-1.8789 0.24219-2.125 0.35938-0.98047 0.46094-2.7188 1.8359-3.1641 2.793l0.5-0.19922c0.43359 0.67188 1.0586 1.0703 1.6875 1.0703 0.49219 0 0.98828-0.24219 1.3984-0.78516 0.49609-0.65625 0.39453-1.3828 1.1719-1.8789 0.28516-0.18359 1.3906-0.28125 1.5078-0.51172 0.33203-0.65234-0.23828-0.84766-0.97656-0.84766z"/>
  <path d="m436.79 183.17h0.027343-0.027343m-1.0664-1.8984c-0.82031 0.046875-2.3477 3.2031-2.5977 3.9727l0.29688 0.29687c0.18359 0.23438 0.35156 0.32813 0.50391 0.32813 0.55078 0 0.91016-1.2148 1.1094-1.6211 0.49219-1.0078 1.1289-1.7891 0.6875-2.9766z"/>
  <path d="m166.01 116.44c3.8359 0.875 7.707 1.7734 11.641 2.6875 41.637 9.6719 88.828 20.629 178.57 23.93l2.4414 0.003906 2.3828 0.003906c2.3672 0 4.7109-0.011719 7.207-0.085938 0.10938 0.32422 0.29688 0.62109 0.53516 0.87109 0.42188 0.4375 1.0312 0.6875 1.6406 0.6875 0.71094 0 1.2734-0.21875 1.7227-0.50781 0.0625 0.0625 0.13281 0.125 0.20312 0.18359 0.070312 0.058593 0.13672 0.10937 0.20703 0.15625 0.078125 0.25781 0.20703 0.53125 0.41016 0.79687 0.64062 0.83203 1.5156 1.2734 2.5391 1.2734 0.25391 0 0.51562-0.03125 0.92578-0.10547 0.089844 0.035157 0.16797 0.089844 0.25 0.14062 0.30469 0.17969 0.62891 0.36328 1.0391 0.51953 0.55078 0.21094 1.0586 0.28125 1.4648 0.33984 0.15234 0.019531 0.30469 0.027344 0.44531 0.078125 0.12109 0.042969 0.22266 0.097656 0.32031 0.14844 0.39453 0.19531 0.99219 0.49219 1.8477 0.57031 0.070312 0.007813 0.36719 0.019532 0.4375 0.019532 0.32031 0 0.62891-0.035157 0.9375-0.074219 0.12109-0.015625 0.24609-0.039063 0.37891-0.039063h0.050781c0.34766 0 0.69141-0.082031 1-0.23438 0.10156 0.015625 0.19922 0.03125 0.29688 0.046875 0.097656 0.097656 0.17188 0.18359 0.23828 0.26172 0.80469 0.89844 1.6055 1.4219 3.3516 1.4219l-0.003906-2.2383 0.42969 2.2383h0.074219c0.10156 0 0.1875 0.003906 0.23438 0.050781 0.22656 0.36328 0.91406 1.4766 2.668 1.4766 0.34766-0.003906 0.65234-0.066406 0.91797-0.15234 0.14453 0.097656 0.30469 0.19141 0.49219 0.27344 0.33984 0.15234 0.66406 0.21875 0.94531 0.25 0.23438 0.26172 0.57812 0.57422 1.0664 0.79297 0.125 0.054688 0.29297 0.10547 0.46484 0.14453 0.35547 0.66016 0.90234 1.1094 1.625 1.3438 0.22266 0.070312 0.67969 0.14453 0.91016 0.14453 1.1719 0 2.0469-0.66406 2.7539-1.1992 0.6875-0.45312 1.0156-0.51562 1.2695-0.51562 0.20312 0 0.44531 0.042969 0.73828 0.13281 0.66797 0.20312 1.2969 0.30078 1.9219 0.30078 0.28125 0 0.54688-0.019531 0.80078-0.050781-0.30859 0.24219-0.58984 0.48828-0.85156 0.71484-0.25781 0.22266-0.51172 0.44922-0.78125 0.65625-0.03125 0.011719-0.0625 0.027344-0.09375 0.039063-2.3359 1.0859-3.6562 2.6758-4.7344 4.2305l-0.51562 0.75781c-0.73828 1.0938-1.375 2.0391-2.2734 2.75-0.10938 0.078125-0.27734 0.17578-0.47266 0.28906-1.3555 0.80859-4.5234 2.6992-3.1016 5.4844 0.26562 0.51953 1.1016 1.7344 3.0977 1.7344 1.5898 0 3.5312-0.79297 5.0898-1.4336 0.023437-0.011719 0.050781-0.019532 0.074219-0.03125 0.046874 0.14844 0.10547 0.30078 0.18359 0.45312 0.71875 1.4062 1.8164 1.6133 2.4023 1.6133 0.48828 0 0.85938-0.14062 1-0.21484 0.17188-0.019531 0.33594-0.023437 0.49609-0.023437 0.37109 0 0.71484 0.035156 1.0469 0.066406 0.44922 0.042969 0.88281 0.078125 1.3281 0.078125 1.1406 0 2.1562-0.23828 3.1953-0.75391 0.73828-0.36719 1.2695-0.84375 1.6992-1.2266 0.26172-0.23438 0.51172-0.45703 0.67578-0.52734 0.15625-0.070313 0.42969-0.125 0.72266-0.1875 0.49609-0.10156 1.1133-0.23047 1.7539-0.53516 0.52344-0.25 0.99219-0.55859 1.4531-0.87891 0.27344-0.1875 0.53906-0.38672 0.85156-0.53125l0.69531-0.3125c0.67578-0.29688 1.3789-0.61719 1.9609-0.95703 0.078125-0.046875 0.15625-0.097656 0.23047-0.14844 0.066406 0.625 0.26172 1.3164 0.83203 1.8984 0.37891 0.38672 1.0547 0.84766 2.1211 0.84766 0.32031 0 0.65625-0.042969 1.0312-0.125 0.51172-0.11719 0.99219-0.31641 1.4688-0.52734 0.21094-0.09375 0.53125-0.23828 0.57422-0.25391 0.36328 0.074219 1.2578 0.72266 1.6406 0.99609l0.27344 0.19922c0.23438 0.16797 0.39062 0.46875 0.41016 0.78906 0.066407 1.1875 1.1484 2.1133 2.3359 2.1133 0.45703 0 0.96094-0.0625 1.3359-0.32812 0.36719 0 0.76172 0.058594 1.1367 0.10547 0.50781 0.066406 1 0.12109 1.6445 0.12109h0.097656c1.6328-0.078125 2.6992-1.043 3.4023-1.6836 0.28516-0.25781 0.58203-0.52734 0.77344-0.60547 0.95312-0.39453 1.8828-0.43359 3.0547-0.48047 0.64063-0.027343 1.2891-0.054687 1.9688-0.13281 0.95313-0.10938 1.8477-0.40625 2.6328-0.66797l0.57812-0.1875 0.19141-0.0625c0.054688 0.35547 0.19531 0.74609 0.49219 1.1289 0.78125 1.0078 2.0117 1.0664 2.6016 1.0977 0.10156 0.003906 0.37891 0.14062 0.60156 0.24609 0.34766 0.16797 0.77734 0.37891 1.3203 0.51562-0.52734 0.16797-1.1172 0.49609-1.543 1.1367-0.25-0.10156-0.51172-0.19141-0.78906-0.25-0.94922-0.38281-1.8789-0.57812-2.7656-0.57812-0.72266 0-1.4062 0.13281-2.0352 0.39453-0.59766 0.25-1.0312 0.60547-1.3438 0.86719-0.066407 0.054687-0.13281 0.11328-0.12109 0.12891-0.14844 0-0.30078-0.015625-0.44922-0.027343-0.25-0.019532-0.49219-0.035157-0.85156-0.035157h-0.078125c-1.5156 0.046875-3.0078 0.55859-4.1367 1.3906-0.26172-0.10547-0.54688-0.16406-0.83984-0.16406-0.16016 0-0.32812 0.019531-0.48828 0.054687-0.67969 0.15234-1.3594 0.57031-1.9648 1.0703-0.125-0.058594-0.25781-0.10547-0.39453-0.14062-0.17969-0.046875-0.36328-0.066407-0.54297-0.066407-0.60156 0-1.1836 0.24219-1.6133 0.68359-0.62891 0.65234-0.79688 1.3867-0.98047 1.8867-0.25781 0.27734-0.61328 0.66016-0.88672 1.2109-0.61719 1.2383-0.97266 2.4961-1.043 3.6836-0.11328 0.28516-0.26172 0.54297-0.40234 0.80469-0.28906 0.53125-0.57422 1.0703-0.78125 1.6914-0.16406 0.48828-0.27734 0.58984-0.80859 1.0703-0.19922 0.17969-0.41406 0.375-0.64062 0.60156-0.39453 0.39062-2.957 3.7422-2.0859 6.1602 0.37891 1.0547 1.2891 1.75 2.4375 1.8555 0.066406 0.007812 0.23047 0.011719 0.29688 0.011719 0.70312 0 1.2969-0.20703 1.8047-0.52734-0.074218 0.58594-0.11328 1.1875-0.125 1.8398-1.4961 1.7383-1.1836 3.8086-0.93359 5.4531 0.10156 0.69531-0.17578 1.5586-0.49609 2.5547-0.51953 1.6094-1.1641 3.6172-0.38281 5.8789 0.17188 0.49609 0.41406 0.89062 0.58984 1.1797 0.066406 0.10547 0.13672 0.20703 0.16797 0.26172 0.042969 0.22656 0.0625 0.44531 0.085937 0.66797 0.050782 0.47266 0.10547 0.94531 0.23047 1.4375 0.09375 0.36719 0.035156 0.85938-0.039063 1.4766-0.066406 0.53906-0.125 1.0859-0.125 1.7578l-0.003906 0.35547c-0.015625 0.78516-0.03125 1.7578 0.51953 2.8516 0.36719 0.72266 0.84766 1.2305 1.2344 1.6406 0.22656 0.24219 0.44141 0.46875 0.50391 0.61328 0.066406 0.14844 0.13281 0.58203 0.1875 0.89844 0.19922 1.2344 0.53516 3.3008 2.5586 4.25 0.54688 0.25781 1.1992 0.38672 1.9414 0.38672 1.5938 0 3.5117-0.58203 4.5664-1.3867 1.8086-1.3789 5.3008-5.168 5.4336-8.6836 0.007812-0.019531 0.011719-0.042969 0.015625-0.0625 0.39844-1.5586 0.5625-3 0.56641-4.9844 0.007812-2.8281-0.6875-5.6953-2.1211-8.7695-0.22266-0.48047-0.5-0.91406-0.76953-1.332-0.41016-0.62891-0.48828-0.79297-0.46484-0.95703 0.015625-0.12109 0.046875-0.23438 0.074219-0.34766 0.11328-0.45703 0.28125-1.1484 0.14844-2.0273-0.0625-0.41406-0.19141-0.81641-0.33594-1.2188-0.003906-0.015625-0.011719-0.03125-0.015625-0.046875 1.4023-2.0898 1.5977-4.2344 1.5977-6.0703 0-0.32031-0.058593-0.75781-0.14062-1.2109 0.097656-0.10156 0.19531-0.21875 0.28516-0.34766 0.25391-0.36328 0.39844-0.67969 0.49219-0.98438 0.68359 1.25 1.8242 1.3828 2.2734 1.3828 1.918 0 2.7891-1.9766 3.0742-2.625 0.62891-1.4297 0.58203-2.6016 0.54297-3.543-0.011719-0.26172-0.023437-0.53516 0.042969-0.92578 0.44531-0.023437 1.0703-0.11328 1.6953-0.51562 0.64453-0.41406 1.0703-1.0391 1.207-1.7578 0.13672-0.73438-0.054688-1.3633-0.31641-1.8672 0.12891 0.023438 0.25781 0.046875 0.39062 0.066407 0.10547 0.015624 0.47266 0.039062 0.58203 0.039062 0.26172 0 0.54297-0.023438 0.82422-0.054688 0.019532-0.003906 0.039063-0.003906 0.054688-0.007812 0.25 0.30078 0.62109 0.71875 1.1758 1.0391 0.007813 0.003907 0.019531 0.011719 0.027344 0.015626 0.66016 0.54687 1.2812 0.70703 1.9023 0.79297 0.12891 0.054688 0.21875 0.10938 0.29688 0.15625 0.51562 0.30469 1.1094 0.60156 2.3008 0.62891 0.058593 0 0.12109 0 0.19141-0.003906 0.078125 0.16797 0.17578 0.33984 0.30078 0.51562 0.078125 0.10938 0.16016 0.21094 0.24609 0.30078-0.035156 0.13281-0.0625 0.27344-0.082031 0.41406-0.17188 1.457 0.75391 2.5859 1.4336 3.4102 0.10156 0.125 0.20703 0.24219 0.23828 0.24219 0.007812 0 0.011718-0.011719 0.007812-0.035157 0.085938 0.25391 0.21875 0.48047 0.39062 0.67969-0.03125 0.45703-0.19141 1.1719-0.27734 1.5586-0.070313 0.30469-0.12891 0.58594-0.17188 0.82422-0.042968 0.24219-0.066406 0.50781-0.089843 0.78125-0.007813 0.078126-0.011719 0.15625-0.015625 0.23828-0.44922 0.23047-1.2656 0.70703-1.6836 1.7031-0.089844 0.09375-0.22266 0.20312-0.35547 0.32422-0.60547 0.54297-1.0195 0.93359-1.3008 1.4219-0.56641 0.98438-0.44922 1.9141-0.36719 2.4219-0.019531 0.13281-0.0625 0.26953-0.10156 0.41406-0.62891 2.3789 0.003906 4.0195 1.8828 4.875 0.45703 0.20703 0.99609 0.30859 1.6562 0.30859 0.78125 0 2.2188-0.13672 3.0977-1.0625 0.55469-0.58203 0.80078-1.3125 1.043-2.0195 0.078124-0.23047 0.14453-0.46875 0.31641-0.75391 0.58594-0.86328 0.77734-1.1211 1.2695-1.3789l0.49609-0.28125c0.085937-0.050781 0.19922-0.11719 0.29297-0.17578 0.39062 0.39453 0.89844 0.98438 1.0156 1.1719 0.035157 0.097656 0.058594 0.41406 0.074219 0.625 0.042969 0.57031 0.097657 1.3477 0.45703 2.1797 0.625 1.4492 1.4062 3.2539 1.5312 4.6602 0.023438 0.27734 0.10156 0.55078 0.22656 0.80078l0.058594 0.11328c0.011719 0.28906-0.023438 0.73828-0.085938 1.1992-0.67188 0.039062-1.5586 0.36719-2.2305 1.5977-0.28906 0.53516-0.33594 1.0586-0.31641 1.5078-0.074218 0.097656-0.14844 0.21094-0.22266 0.33203l-0.17188 0.29297c-0.30859 0.53125-0.4375 0.75391-0.78516 1.1016-1.0859 1.0977-1.1992 2.0039-1.2305 2.9102-0.003906 0.12891-0.007812 0.27344-0.023438 0.4375-0.03125 0.15625-0.28125 0.57422-0.44531 0.85156-0.38281 0.64062-0.86328 1.4492-1.0273 2.4336-0.035156 0.09375-0.0625 0.19141-0.082031 0.29297-0.39453 1.8281 0.69922 3.5781 2.7539 4.5156 0.074219 0.21484 0.16797 0.39062 0.25391 0.52344 0.42969 0.67578 1.0703 0.92969 1.4961 1.0938 0.62891 0.3125 1.293 0.46875 1.9727 0.46875 0.89453 0 1.6562-0.26562 2.3438-0.55469 0.38672 0.28906 0.94922 0.59766 1.707 0.64062 0.042969 0.003907 0.089843 0.003907 0.13281 0.003907 0.26562 0 0.52734-0.046876 0.77734-0.14063 0.49219-0.18359 0.96484-0.41406 1.4336-0.64844 0.48438-0.24219 0.90625-0.45312 1.2734-0.54297 0.28125-0.066406 0.51562-0.09375 0.72266-0.11719 0.78516-0.097657 1.8594-0.23047 3.125-1.4219 1.1836-1.1133 2.4922-1.8555 4.0078-2.7148l1.2188-0.69922c1.1523-0.67578 2.2109-1.4453 3.2344-2.1914 0.76172-0.55469 1.5234-1.1133 2.3203-1.6172 1.918-1.2188 3.6406-2.4531 5.1172-3.6641l0.57422-0.46484c1.6836-1.3477 3.9844-3.1953 4.6719-5.3164l0.066406-0.17188c1.3633-1.7773 0.53516-3.2422 0.17188-3.8945l-0.14844-0.27344c-0.125-0.24219-0.17969-0.49219-0.25-0.74609-0.066407-0.23438-0.13281-0.47266-0.21094-0.71094 0.023438-0.003906 0.042969-0.007812 0.066406-0.015625l0.54688-0.12109c0.94922-0.23047 1.7188-0.64453 2.3984-1.0117 0.57812-0.3125 1.082-0.58203 1.6016-0.63672 0.26172 0 0.63281 0.09375 1.0273 0.19531 0.41797 0.10547 0.91016 0.23047 1.5469 0.28906 0.71094 0.27344 1.5039 0.41016 2.3633 0.41016 2.6875 0 5.7852-1.3867 7.7891-2.6836 0.84375-0.54688 1.4961-1.1562 2.2891-2.1719 0.14453-0.050781 0.3125-0.11719 0.51953-0.21484 1.293-0.60156 1.8047-1.4922 2.0039-2.1289 0.46484-1.4844-0.28125-2.7617-0.82422-3.6953l-0.074219-0.12891c-0.023437-0.066407-0.046875-0.125-0.074218-0.1875 0.28516-0.5625 0.71094-1.6445 0.054687-2.7461-0.015625-0.027344-0.035156-0.058594-0.054687-0.089844 1.3516-0.99609 1.8633-2.1602 2.3242-3.1992l0.27344-0.60938c0.66797-1.4297 1.3438-2.5508 2.0156-3.3398 1.4062-1.6523 2.0039-2.043 1.9805-2.0977 0.38281 0 0.75781-0.097656 1.0938-0.28516l0.30078-0.16797c1.3203-0.046875 2.5781-0.47656 3.6914-0.86328 0.42969-0.14844 0.84766-0.29297 1.2422-0.39844 1.4453-0.38672 2.8945-0.63281 4.2422-0.83984 2.1914-0.33984 4.3516-0.86719 6.4453-1.3789 0.91016-0.22266 1.8203-0.44531 2.7305-0.65234 1.207-0.27344 2.7461-0.58594 3.9688-0.58594l0.30469 0.007813c0.039062 0.003906 0.078125 0.003906 0.11328 0.003906 0.34766 0 0.69141-0.082031 1-0.23828l0.54688-0.27344c1.7539-0.85938 2.2266-1.9062 2.6641-3.1875 0.011718-0.035156 0.023437-0.070312 0.035156-0.11328 0.15234-0.035156 0.28906-0.078125 0.39062-0.12109 0.54297-0.23047 0.92969-0.5625 1.2148-0.91016 0.085938 0.011719 0.17578 0.019531 0.25781 0.019531 0.58203 0 1.4219-0.21094 2.1211-1.2109 0.17188-0.24609 0.28516-0.5 0.35547-0.75 0.17578-0.14062 0.33594-0.30469 0.47266-0.48828 0.74609-1.0195 0.5-2.1836 0.23438-3.0625 0.22266-0.25391 0.44922-0.52734 0.65625-0.85156 0.5-0.78125 0.63281-1.5508 0.71875-2.0625 0.007812-0.042969 0.015625-0.089844 0.023437-0.13672 1.0156-0.90234 1.0195-1.9805 0.91797-2.5781-0.097656-0.56641-0.36328-1.0664-0.75-1.4609-0.074219-0.55859-0.28906-1.0195-0.50781-1.4062 0.0625-0.089844 0.13281-0.1875 0.19141-0.26562 0.14844-0.20312 0.29297-0.40625 0.41406-0.60156 0.95703-1.5273 0.6875-2.9414 0.51172-3.875-0.046875-0.25-0.10547-0.51172-0.11719-0.79688-0.035156-0.71484 0.13281-1.3203 0.44922-2.1836 0.39453-1.0703 0.91016-2.1289 1.5078-3.3672 0.078125-0.16406 0.17188-0.33594 0.27734-0.51562 0.49219 0.32812 1.0781 0.50391 1.7227 0.50391 1.3047 0 2.5547-0.72656 3.7227-1.4727l0.32812-0.20312c0.28516-0.15625 0.54688-0.31641 0.79297-0.46875 0.22656-0.13672 0.52734-0.32422 0.62109-0.32422 0.007812 0 0.011718 0 0.015624 0.003906 0.42969 0.25 0.83594 0.53516 1.2461 0.8125 0.47266 0.32422 0.98828 0.67969 1.5547 1.0078 0.29297 1.2969 0.71875 2.5391 1.1367 3.7539 0.57031 1.668 1.1133 3.2461 1.2383 4.7539 0.039062 0.47656 0.22656 0.90234 0.51562 1.2344 0.14062 0.49219 0.19531 1.5312 0.21484 1.9531l0.015626 0.32812c0.14453 2.4805 1.4531 3.9023 3.8984 4.2305 0.11328 0.20703 0.22656 0.37891 0.33594 0.51953-0.023437 0.53516 0.019532 1.5859 0.92578 2.4688 0.60938 0.58984 1.3828 0.89063 2.3086 0.89063l0.074218-0.003907c-0.011718 0.21875-0.007812 0.45703 0.03125 0.70312-0.89062 0.45703-1.5469 1.2188-2.0078 1.8867-1.2734 0.19141-1.8672 1-2.1953 1.7539-0.1875-0.035156-0.36328-0.050781-0.51562-0.050781-1.0703 0-1.7656 0.62109-1.9805 0.92578-0.46094 0-0.97656 0.089844-1.4297 0.37891-0.42969-0.30078-0.91016-0.45703-1.3477-0.52734-0.125-0.019532-0.25-0.03125-0.37109-0.03125-0.98438 0-1.8789 0.65234-2.1523 1.6289-0.039062 0.14062-0.11328 0.28516-0.17969 0.43359-0.25 0.5625-0.58984 1.332-0.57812 2.2344 0.007812 0.5 0.074218 0.86328 0.13672 1.168l-0.14062 0.41016c-0.125 0.375-0.29297 0.89062-0.34375 0.96094-0.078126 0.058594-0.16797 0.10547-0.25391 0.15625-0.33984 0.19922-1.0703 0.625-1.5625 1.3672-0.26562-0.11328-0.57422-0.1875-0.92969-0.1875-1.1328 0-1.9922 0.69531-2.5508 2.0703-0.082031 0.19531-0.13281 0.38672-0.16406 0.56641-0.22656 0.15625-0.47266 0.36328-0.69141 0.64453-0.34375 0.44531-0.49609 0.91016-0.58984 1.3086-0.33594 0.26172-0.81641 0.6875-1.1016 1.3789-0.32813 0.79297-0.29297 1.5977-0.26172 2.2461 0.007812 0.16797 0.023437 0.33203 0.015625 0.45703-0.042969 0.089844-0.10547 0.16016-0.16406 0.23828-0.22656 0.3125-0.45703 0.64844-0.66406 1.0977-0.36719 0.78516-0.375 1.5078-0.34375 2.1055-0.082031 0.20312-0.16406 0.37109-0.23828 0.52734-0.30078 0.625-0.67578 1.4023-0.68359 2.7422 0 0.24609 0.039062 0.48828 0.11328 0.71875l0.09375 0.28125c0.050781 0.15234 0.11719 0.29297 0.19531 0.42969-0.007813 0.31641-0.007813 0.73438 0.11328 1.1992 0.14453 0.55859 0.35156 1.0156 0.63281 1.3828-1.1797 0.48828-1.7656 1.3789-1.8945 2.8594-0.054688 0.61719-0.15234 1.7656 0.66797 2.6602 0.42578 0.46094 1.2734 0.8125 1.9023 0.8125 0.39844 0 0.75391-0.078125 1.1133-0.16797l0.097656-0.027343c0.085938 0.046875 0.16016 0.09375 0.22656 0.13672 0.03125 0.26953 0.09375 0.58203 0.24219 0.91016 0.15625 0.34766 0.33594 0.64062 0.55078 0.87891-0.074219 0.054688-0.14844 0.10938-0.22266 0.17188-0.24609 0.21094-0.44141 0.43359-0.60156 0.64844-0.28516-0.28125-0.64844-0.48437-1.0547-0.58203-0.16797-0.039062-0.56641-0.085937-0.74219-0.085937-3.0469 0-3.375 3.5938-3.4961 4.957l-0.027344 0.33594c-0.16406 0.09375-0.32031 0.16406-0.32031 0.17578h-0.050782c-0.28516 0-0.56641 0.054687-0.83203 0.16016l-0.32031 0.13281c-0.90625 0.28906-1.6602 0.71094-2.3242 1.082-0.42969 0.24219-0.85938 0.48828-1.332 0.66797-0.60937 0.23047-1.2305 0.375-1.8516 0.52734-0.43359 0.10547-0.86328 0.21094-1.2891 0.33203-1.6445 0.47266-3.2734 1.2227-4.5859 2.1211l-0.48438 0.31641c-0.93359 0.60547-2.0938 1.3555-2.793 2.4844-0.070312 0.10938-0.12891 0.22656-0.17578 0.34766l-0.125 0.3125c-0.375 0.625-0.98828 1.4727-1.5312 2.1211-0.14062 0.16797-0.28516 0.3125-0.42188 0.44922-0.69531 0.71094-1.75 1.7852-1.6523 3.8789 0.070313 1.5117 0.74609 2.5195 2.0938 3.0234-0.003906 0.054687-0.003906 0.10547-0.007812 0.14844-0.003906 0.082032-0.007813 0.16016-0.011719 0.25-0.46484 1.2773-0.11719 2.5898 0.019531 3.0156 0.10547 0.32031 0.24219 0.57422 0.37109 0.76953-0.003906 0.074219-0.011719 0.16797-0.019531 0.29688-0.066407 1.2734-0.45312 2.5469-1.0586 3.4961-0.054687 0.085937-0.18359 0.21484-0.33203 0.35937-0.35156 0.34766-0.82812 0.82031-1.1875 1.5664-0.17188 0.35156-0.30078 0.73438-0.42578 1.125-0.003906 0.015625-0.011718 0.035156-0.015624 0.050781-0.042969-0.019531-0.089844-0.035156-0.13672-0.054688-0.25391-0.09375-0.66016-0.16406-0.92969-0.16406-0.41016 0-0.8125 0.082031-1.1719 0.15625l-0.17578 0.058594c-0.26953-0.003906-0.40625-0.011719-0.47266-0.011719-0.035157 0-0.050781 0-0.058594 0.003906-0.15625-0.13281-0.43359-0.71094-0.59766-1.0586l-0.26953-0.55469c-0.070313-0.13672-0.070313-0.50391-0.074219-0.85547-0.003907-0.60156-0.007813-1.3516-0.28125-2.1719-0.24609-0.73047-0.84766-1.2891-1.5977-1.4688-0.17578-0.042968-0.35156-0.0625-0.52734-0.0625-0.57812 0-1.1445 0.22266-1.5664 0.64062-0.99219 0.97266-1.4297 2.3438-1.4258 3.7109-0.22266-0.11719-0.45703-0.20703-0.69531-0.26562-0.18359-0.046875-0.36719-0.070313-0.55078-0.070313-0.71875 0-1.4062 0.34766-1.832 0.95312-0.71484 1.0195-1.6719 2.1484-2.625 3.1055-1.1602 1.1641-1.6562 2.1914-0.63281 4.2578 0.09375 0.1875 0.21875 0.44922 0.23047 0.55469-0.011718 0.097656-0.015624 0.29297-0.011718 0.39062 0.003906 0.11719-0.027344 0.26562-0.085938 0.51562-0.10156 0.45312-0.24609 1.0977-0.16406 1.9062-0.32422 0.21875-0.58984 0.52344-0.76562 0.88672-0.64453 1.3477-0.36328 2.4609 0.21094 3.332-0.21094 0.25-0.35547 0.53125-0.44141 0.80469-0.10156 0.32422-0.15234 0.71094-0.066406 1.1289-0.45312 0.35156-0.78125 0.83594-0.92969 1.3945-0.41797 1.5703 0.65234 2.9609 1.7188 4.0898 0.46484 0.49219 0.91797 0.97266 1.418 1.418-0.24219 0.27734-0.37891 0.56641-0.45703 0.78125-0.14062-0.003906-0.28516-0.007812-0.43359-0.007812-0.85547 0-3.125 0-3.6055 1.9961-0.13672 0.57422-0.24609 2.0156 1.7188 3.0195 0.75781 0.38672 1.5 0.41016 1.9922 0.42969h0.074219c0.085937 0 0.15625-0.007812 0.14453-0.023437 0.35547 0.16016 0.73438 0.40625 1.0898 0.63281l0.50781 0.3125c0.058594 0.035156 0.12109 0.066406 0.18359 0.097656 1.2539 1.125 2.7617 1.7344 4.3398 1.7344 0.625 0 1.2617-0.097657 1.8867-0.28516 0.0625-0.019531 0.125-0.039062 0.18359-0.058593-0.042969 0.33984-0.046875 0.70703 0.03125 1.0898 0.13281 0.625 0.44141 1.1719 0.92969 1.6289 0.023438 0.22656 0.042969 0.47656 0.0625 0.71094-0.03125 0.011719-0.0625 0.019532-0.09375 0.03125-0.50391 0.16406-1 0.38281-1.4297 0.75391h-0.085937c-0.1875 0-0.375 0.019532-0.55859 0.058594-0.085938-0.125-0.18359-0.24609-0.30078-0.36328-0.39062-0.40234-1.0977-0.88281-2.3906-0.88281h-0.011719c-1.1445 0.042969-2.0742 0.94141-2.1523 2.0859-0.13281 1.9805-0.15625 4.0273 1.1289 5.4023 0.48047 0.51562 1.3438 1.1289 2.7031 1.1289h0.019532c-0.33984 0.19922-0.62109 0.48438-0.81641 0.82422-0.47656-0.082031-0.98047-0.14844-1.4961-0.16016h-0.058594c-0.80469 0-1.5508 0.43359-1.9492 1.1367-0.40625 0.71875-0.38672 1.6094 0.058594 2.3047 0.42969 0.67578 1.0391 1.1758 1.7305 1.5625-0.25391 0.0625-0.51172 0.14844-0.75781 0.26562-0.58203 0.27344-1.0156 0.78516-1.1953 1.3984-0.17969 0.61719-0.085937 1.2812 0.25781 1.8242 0.26953 0.42578 0.68359 0.89062 1.3125 1.2539-0.15234 0.10938-0.29688 0.23438-0.4375 0.36719-0.16406-0.10547-0.34766-0.19922-0.55469-0.27734-0.25781-0.097656-0.52344-0.14062-0.78516-0.14062-0.77344 0-1.5195 0.40234-1.9297 1.1055-0.50391 0.85938-0.45703 1.6484-0.41016 1.9805-0.039063 0.16406-0.078126 0.41797-0.058594 0.71875-0.12109 0.16406-0.30859 0.36719-0.48047 0.55469-0.42188 0.46484-0.94531 1.0469-1.3984 1.9453-0.66406 1.3203-1.2656 2.5117-1.5352 4.0859-0.27734 0.046875-0.56641 0.082031-0.875 0.12109-1.4883 0.18359-3.3398 0.41016-5.1602 2.2188-0.19141 0.19141-0.42188 0.39844-0.66016 0.61719-0.8125 0.74219-1.7305 1.582-2.2852 2.5273-0.41406 0.71094-0.51953 1.4492-0.60547 2.0469-0.007813 0.046875-0.011719 0.09375-0.019532 0.14062-0.35937 0.23828-0.64453 0.57422-0.82031 0.98047-0.23438 0.54688-0.24219 1.1602-0.027344 1.7031-0.60156 0.32422-1.0312 0.76172-1.4844 1.2734-0.16406 0.18359-0.35156 0.39453-0.60156 0.64062l-0.23828 0.23047c-0.97266 0.9375-2.3359 2.2461-2.7969 3.7852-0.36328 0.27734-0.70312 0.44531-1.1953 0.68359-0.29688 0.14453-0.60938 0.29688-0.95312 0.48438-0.22266 0.12109-0.41016 0.24219-0.5625 0.35938-0.26172-0.070312-0.625-0.15234-1.0703-0.15234-0.15625 0-0.5625 0.042969-0.71484 0.074219-0.47266 0.10156-0.88672 0.34375-1.1953 0.6875-0.066406-0.003906-0.12891-0.007813-0.19531-0.007813-0.46094 0-0.91797 0.14453-1.3008 0.41797-0.53125 0.37891-0.87109 0.96875-0.92969 1.6211-0.078125 0.87891 0.089844 1.6211 0.22266 2.2188 0.15625 0.69141 0.17969 0.89844 0.0625 1.1797-0.55859 1.3398-0.875 1.875-1.0273 2.0859-0.625 0.36719-1.0078 1.0273-1.0508 1.7617-0.59766 0.28516-1.0547 0.82812-1.2148 1.5-0.16406 0.6875 0.003907 1.3945 0.42969 1.9258 0.003906 0.015625 0.003906 0.035156 0.007812 0.050781-0.019531 0.11328-0.03125 0.23047-0.035156 0.34766v0.16016c-0.23438 0.10938-0.4375 0.21875-0.58594 0.31641-0.76953 0.51562-1.1406 1.4531-0.93359 2.3594 0.03125 0.13281 0.074219 0.26172 0.125 0.38281-0.10547 0.25-0.16406 0.51953-0.17188 0.79297-0.066406 2.3281 0.48438 4.457 1.0156 6.5156 0.26562 1.0234 0.53125 2.0469 0.70312 3.0781 0.33984 2.0469 1.3633 3.832 2.2656 5.4062 0.82031 1.4336 1.5977 2.7852 1.707 4.0273 0.046875 0.52734 0.27344 1.0195 0.64844 1.3906l0.14453 0.12891c1.6016 1.9922 2.7227 3.7188 3.0039 4.6172 0.039063 0.12109 0.046875 0.41406 0.054688 0.67188 0.015625 0.49219 0.039062 1.1055 0.23047 1.7773 0.32422 1.1406 0.96875 2.0742 1.4883 2.8242l0.30078 0.44141c1.6094 2.4336 2.8555 4.9297 4.1719 7.5664 0.57422 1.1484 1.1484 2.3008 1.7578 3.457 0.15234 0.28906 0.36719 0.54297 0.63281 0.74219 0.35547 1.1367 0.89453 2.1484 1.3828 3.0586 0.62891 1.1758 1.1719 2.1875 1.2852 3.2773 0.11328 1.0781-0.003907 2.207-0.12891 3.4023-0.10156 0.98438-0.19922 1.9688-0.19531 2.9648 0.003906 0.73828-0.082031 0.92969-0.36328 1.5664-0.13281 0.30469-0.28125 0.64453-0.4375 1.0586-0.44141 1.1953-0.26562 2.2891-0.13672 3.0898 0.039062 0.25391 0.10156 0.63672 0.10547 0.69141-0.19531 0.37109-1.168 0.93359-2.3359 1.3477-0.59766-1.0781-1.8047-1.9961-3.1484-3.0039 0.027344-0.40234-0.058594-0.80469-0.24609-1.1719-0.91406-1.7656-3.7578-2.5938-5.4102-2.6016-0.16797-0.44922-0.34766-0.88281-0.55859-1.2539-0.13281-0.23047-0.26953-0.44922-0.40234-0.65625-0.125-0.19141-0.29297-0.45312-0.3125-0.55469 0.046875-0.45312-0.12109-0.98047-0.38281-1.418-0.59375-1.4258-1.6523-1.9492-2.418-2.2266 0.015625-0.17969 0.042969-0.38281 0.066406-0.58984 0.16016-1.4258 0.36328-3.1992-0.98438-4.2969-0.64062-0.51953-1.3086-0.78516-1.9883-0.78516-0.50391 0-1.0547 0.11328-1.5312 0.47656-0.28906-0.64844-0.58594-1.293-0.94141-1.8789-0.21875-0.36328-0.55078-0.75391-0.90625-1.1562-0.035157-0.039062-0.074219-0.082031-0.11328-0.125 0.57031-0.48828 1.3477-1.207 1.6641-2.3281 0.63672-2.2539-0.58203-4.4648-2.832-5.1406-0.28516-0.085937-0.53125-0.14844-0.75391-0.1875 0.23047-0.35938 0.35156-0.77734 0.35156-1.2031l-0.003906-0.33203c0.16016-2.7656-0.69141-6.9492-2.582-9.2578-0.99609-1.2109-1.9922-1.4961-2.6523-1.6875-0.18359-0.050781-0.38672-0.10156-0.62891-0.22656-0.65625-0.33594-1.7305-1.0625-2.2969-1.5508-0.12891-0.10938-0.19141-0.24219-0.36328-0.71484-0.19141-0.51562-0.44922-1.2227-1.0312-1.8867-0.18359-0.21094-0.23047-0.24219-0.98828-0.78906l-0.55859-0.40234-0.51172-0.40234c-0.20313-0.15625-0.41016-0.31641-0.60156-0.48047-1.6328-1.3828-3.168-2.5312-5.4297-2.5312-0.83984 0-1.7266 0.16406-2.7109 0.5-1.4102 0.48437-2.1562 1.2188-2.5156 2.5195l0.0625-0.27734c-0.63672 0.10156-1.957 0.32031-2.9648 1.7305-0.066406 0.09375-0.12891 0.19531-0.17969 0.30078l-0.03125 0.066406c-0.23438 0.19531-0.88281 0.47656-1.6602 0.47656-0.38281 0-0.625-0.070313-0.80469-0.17578-0.089844-0.35937-0.24219-0.91797-0.66016-1.6094-0.24609-0.40625-0.54688-0.73438-0.86719-1.0039 0.17188-0.66016 0.066406-1.2734-0.03125-1.6289-0.25781-0.93359-1.082-1.5938-2.0469-1.6445l-0.32422-0.019532c-0.30859-0.019531-0.61719-0.039062-0.92187-0.039062-1.0703 0-1.8789 0.25781-2.4883 0.62891-0.074218-0.019531-0.14844-0.039062-0.22266-0.054687-0.21094-1.7773-2.168-2.9492-3.9961-2.9492-0.44531 0-0.88281 0.066406-1.3047 0.19922-1.0742 0.33594-1.7852 0.91797-2.1562 1.7773-0.10156-0.003906-0.19922-0.015624-0.28906-0.023437-0.070312-0.007813-0.27344-0.011719-0.36328-0.011719h-0.019531l-0.12109 0.003906c-0.19922-0.40234-0.51953-0.73828-0.92578-0.96484-0.33594-0.1875-0.71094-0.27734-1.082-0.27734-0.42188 0-0.84375 0.11719-1.2109 0.35547-0.34766 0.22266-0.64062 0.51562-1.0117 0.88281-0.074219 0.074219-0.17188 0.17188-0.27734 0.27344-0.31641-0.16797-0.67578-0.26172-1.0469-0.26172-0.20312 0-0.41016 0.027344-0.61328 0.085937-1 0.28516-1.6328 0.95703-2.0742 1.625-0.19922-0.14844-0.40234-0.26953-0.60156-0.375-0.003906-0.058593-0.011719-0.12109-0.019531-0.18359-0.10547-1.0039-0.38281-3.6719-2.8047-3.6719-1.4805 0-2.3711 1.25-2.707 1.7188-0.60156 0.84375-0.76562 1.7656-0.84375 2.5742-0.24609 0.046876-0.48438 0.097657-0.71094 0.14453-0.29297 0.0625-0.57422 0.14062-0.78906 0.14844-0.54688 0-1.0898-0.019531-1.6406-0.039062-0.3125-0.011719-0.625-0.019531-0.97266-0.027344-0.60156-0.40625-1.3086-0.625-2.0742-0.625-1.7383 0-3.3164 1.1094-4.4688 1.9219-0.22266 0.15625-0.41797 0.29688-0.58203 0.39844-0.44531 0.27344-0.62891 0.27344-0.6875 0.27344-0.27344 0-0.76172-0.17969-1.3281-0.39062-0.28906-0.10547-0.60156-0.21875-0.81641-0.28516-0.16406-0.082032-0.37891-0.23438-0.60156-0.38281-0.84766-0.5625-1.6523-1.0938-2.6055-1.0938-0.089844 0-0.21094 0.007813-0.30078 0.019531-0.82422 0.097657-1.3828 0.51563-1.7656 0.92578-0.28125-0.10938-0.58203-0.17578-0.84766-0.17578-1 0-1.6953 0.62109-1.9922 0.88672-0.94531 0.84375-1.8281 2.7305-0.83984 4.2852 0.64063 1.0078 1.6875 1.2305 2.3125 1.3633 0.085938 0.019531 0.17188 0.03125 0.26172 0.054687 0.40625 0.40625 0.96094 0.61328 1.5352 0.61328 0.039062 0 0.078124 0 0.11328-0.003907 0.03125 0.015625 0.0625 0.027344 0.09375 0.042969 0.40625 0.17188 0.96094 0.41016 1.6758 0.47656 0.070312 0.007813 0.37891 0.023438 0.45312 0.023438 0.92188 0 1.6133-0.28125 2.0938-0.49219 0.011719 0.10547 0.027344 0.21484 0.050781 0.32422 0.082032 0.38281 0.26172 0.73438 0.51953 1.0195-0.039063 0.078126-0.070313 0.15625-0.10156 0.23438-0.035156 0.003906-0.066406 0.007812-0.10156 0.011718-0.59766 0.078125-1.2031 0.44922-1.5664 0.92969-0.875 0.47656-1.3828 1.0977-1.6875 2.082-0.26172-0.19141-0.5625-0.32812-0.89844-0.39062-0.35938-0.070312-0.67969-0.097656-0.96094-0.097656-1.7383 0-2.6055 0.96875-3.0586 1.8867h-0.050782c-0.51172 0-0.9375 0.13672-1.2773 0.30469-0.011718-0.003906-0.023437-0.007812-0.03125-0.011719-0.15234-2.2734-2.9297-3.9805-3.8633-4.3047-0.34375-0.12109-0.64844-0.17578-0.90625-0.19922-0.22656-0.375-0.57422-0.77734-1.1133-1.0508-0.31641-0.16016-0.875-0.28906-1.2266-0.28906-0.042969 0-0.085938 0-0.13281 0.003907-0.19141-0.24219-0.42578-0.44141-0.69141-0.56641-0.37891-0.17969-0.96875-0.42188-1.6953-0.42188-0.42969 0-0.77734 0.078125-1.0859 0.14844-0.16406 0.039062-0.36719 0.085937-0.64453 0.125l-0.625 0.078125c-0.71875 0.085937-1.8008 0.21484-2.4414 1.2734-0.21094 0.34766-0.30859 0.68359-0.33984 1.0078-0.64063-0.10938-1.3555-0.33594-2.1016-0.57031-1.3398-0.42188-2.8555-0.90234-4.5195-0.90234l-0.24219 0.003907c-0.015625-0.80078-0.21484-1.5703-0.58984-2.168-0.51953-0.82031-1.3359-1.2891-2.2461-1.2891-0.75391 0-1.7383 0.30469-2.4961 1.6133-0.43359-0.31641-0.95312-0.49219-1.5-0.49219-0.84375 0-2.0391 0.39453-2.918 2.2695-0.26953 0.57422-0.39453 1.043-0.60938 1.7109-0.57422 0.4375-1.6523 0.94531-2.5312 1.1719-0.078125-0.49219-0.27734-0.96484-0.60156-1.418-0.5-0.69922-1.293-1.0977-2.1797-1.0977-0.98828 0-1.8516 0.48438-2.5469 0.875l-0.26953 0.14844c-0.22656 0.11719-0.39453 0.17969-0.51562 0.22656-0.375 0.14453-1.25 0.48047-1.625 1.5117-0.37891 1.043 0.085938 1.8789 0.33203 2.3281 0.082031 0.14844 0.19141 0.34375 0.32031 0.61328 0.058594 0.12109 0.13281 0.25391 0.21094 0.39062-0.125 0.09375-0.25 0.19922-0.375 0.32422-0.44922 0.45312-0.66406 0.90234-0.78906 1.1875-0.625 0.76953-1.1641 1.4336-1.8164 1.8828-0.25 0.17188-0.46094 0.39062-0.62109 0.64453-1.2812 0.87891-2.4844 1.2305-4.1523 1.2305-0.53125 0-1.082-0.035156-1.6641-0.09375-0.16016-0.019531-0.46094-0.074219-0.82031-0.14062-1.2695-0.22656-2.3008-0.40234-3.0625-0.40234-0.46094 0-1.1445 0.054688-1.7695 0.53516-0.74219 0.57422-1.1719 1.3633-1.2109 2.2266-0.015625 0.39844 0.042969 0.75391 0.15625 1.0781-2.0664 0.53906-2.2812 1.9922-2.2266 2.8086-0.050781 0.007812-0.10547 0.015625-0.16016 0.027344-0.52344 0.09375-1.3086 0.23828-2.1914 0.73438-0.82422 0.46484-1.2422 1.3711-1.1211 2.2578-0.99609 0.14453-1.6797 0.64453-2.0938 1.0742-0.73828 0.76562-0.83984 1.9453-0.23437 2.8242 0.32422 0.47266 0.64844 0.80859 0.94141 1.1016 0.027344 0.027344 0.050781 0.050781 0.070312 0.0625-0.039062 0.125-0.10547 0.28125-0.15234 0.39844-0.84766 0.03125-2.2344 0.09375-3.0781 1.2539-0.49609 0.68359-0.63281 1.5391-0.38281 2.4062 0.21875 0.75781 0.70312 1.2188 1.2891 1.5352-0.18359 0.51562-0.28125 1.1133-0.20313 1.8047-0.054687 0.91016 0.082032 1.7305 0.20313 2.4609 0.066406 0.40234 0.14062 0.80078 0.14844 1.1953 0.035156 1.707 0.41016 2.5156 1.0195 3.6914l0.24219 0.47266 0.21484 0.41797c0.12109 0.23047 0.33984 0.64844 0.53125 1.0742-0.3125-0.17969-0.64063-0.39844-0.89063-0.5625-0.89844-0.58984-1.918-1.2539-3.0977-1.5156-1.6836-0.37109-3.2344-0.82031-4.8438-1.2891l-0.75391-0.21875c-0.21094-0.0625-0.27734-0.11328-0.63281-0.43359-0.36719-0.33203-0.76563-0.68359-1.3359-1.0273-0.4375-0.26562-0.83594-0.45703-1.2188-0.64453-0.39453-0.1875-0.67969-0.32422-0.96875-0.54297l-0.29688-0.39844c-0.13672-0.18359-0.1875-0.36719-0.30469-0.89062-0.078126-0.34766-0.16016-0.70703-0.28125-1.0742-0.26563-0.80859-0.6875-1.457-1.0586-2.0273-0.26172-0.40625-0.50781-0.78516-0.61328-1.1016-0.20312-0.625-0.48437-1.6523-0.55469-1.9688 0.015625-0.14844 0.074219-0.30078 0.11719-0.44922 0.19141-0.64844 0.48438-1.6289 0.09375-2.6914-0.5625-1.5312-1.957-2.0625-2.7891-2.3828-0.13672-0.050781-0.27344-0.097657-0.37109-0.097657-0.023437 0-0.046875 0.003907-0.066406 0.007813-0.023438-0.097656-0.027344-0.19922-0.039062-0.30469-0.042969-0.41016-0.097657-0.85156-0.25-1.3672-0.74609-2.5273-2.4609-4.0312-4.0664-5.3125-0.089843-0.17188-0.16406-0.26953-0.34766-0.42578-0.14062-0.20312-0.37109-0.90234-0.50781-1.3203-0.19141-0.58203-0.38281-1.1289-0.67969-1.7383-0.39844-0.80469-0.83203-1.668-1.1484-2.5117l-0.25781-0.69141c-0.72266-1.9688-1.6211-4.418-3.5312-6.1523-0.61719-0.5625-1.2578-0.93359-1.8242-1.2656-0.33594-0.19531-0.67188-0.37891-0.96875-0.62891-0.10547-0.089844-0.21094-0.28906-0.375-0.61328-0.35547-0.69531-0.89062-1.7461-2.1992-2.418-2.2891-1.1758-6.1562-1.2109-6.5898-1.2109l-0.35547 0.019531c-0.097656-0.011719-0.097656-0.011719-0.27734-0.13672-0.36719-0.25781-1.0508-0.73438-2.1016-0.73438-0.57422 0-1.1562 0.14062-1.832 0.4375-1 0.44531-2.8047 1.3281-3.6172 2.2539-0.64453 0.73047-0.96094 1.7109-1.2148 2.4961-0.070312 0.21875-0.13281 0.42188-0.19922 0.58203-0.19531 0.46094-0.29297 1.0078-0.41016 1.6367-0.007812 0.050781-0.019531 0.10547-0.027343 0.16016-0.28125 0.078125-0.57813 0.20312-0.88281 0.41016-0.50391 0.34375-0.82812 0.75391-1.0586 1.1289-0.09375-0.035156-0.19141-0.066406-0.29688-0.10156-0.45703-0.14844-0.88281-0.22656-1.2891-0.29297-0.17969-0.03125-0.45312-0.074218-0.52734-0.11719-0.089844-0.074219-0.23438-0.29297-0.37109-0.50391-0.36328-0.55078-0.85938-1.3008-1.7891-1.8711-0.5625-0.34375-1.0664-0.52734-1.4297-0.65625-0.41016-0.14844-0.41016-0.14844-0.51172-0.28516-0.19141-0.26172-0.33984-0.53906-0.49219-0.81641-0.30078-0.54687-0.64453-1.168-1.1914-1.7773-0.20312-0.23047-0.48438-0.41016-0.79297-0.53906-0.78906-0.625-1.3711-1.332-1.5898-1.9297-0.0625-0.16797-0.011719-0.62891 0.03125-1 0.074219-0.68359 0.16797-1.5352-0.082031-2.4453-0.32422-1.1875-1.1133-1.9102-1.6328-2.3906-0.15625-0.14453-0.39453-0.36328-0.43359-0.43359-0.10547-0.29297-0.19531-0.56641-0.27734-0.82813-0.25391-0.78906-0.53906-1.6836-1.1992-2.7344-1.0391-1.6523-1.7266-2.0547-3.3125-2.8594-0.31641-0.16016-0.39844-0.24609-0.39844-0.24609-0.035156-0.046875-0.12891-0.23828-0.19922-0.38281-0.16406-0.34375-0.35938-0.73438-0.66016-1.2148-0.9375-1.4961-2.2344-2.6406-3.4883-3.7461-0.69531-0.61328-1.3906-1.2227-1.9805-1.8867-0.26172-0.29688-0.34766-0.61328-0.48047-1.1914-0.24609-1.0469-0.8125-3.4688-4.543-3.5703l-15.211-2.2422c-0.10938-0.015625-0.21875-0.023438-0.32812-0.023438-0.48828 0-0.96484 0.16016-1.3555 0.45703-0.48047 0.36328-0.79297 0.90625-0.86719 1.5039l-0.35156 2.8086-22.938-3.1406-32.113-18.262c-0.082031-0.26172-0.19922-0.51172-0.35156-0.75391-1.6484-2.5977-7.4219-2.9453-8.7852-2.9883-1.5234-0.35547-2.9648-0.39453-4.3633-0.43359-0.89062-0.023437-1.7812-0.046874-2.6797-0.17187-0.83984-0.11719-1.668-0.30859-2.4961-0.49609-0.98438-0.22266-1.9688-0.44531-2.9727-0.58203-0.125-0.015624-0.23828-0.035156-0.33203-0.050781 0.054688-0.23438 0.12109-0.5 0.17969-0.73828l0.11328-0.44922c1.0742-4.3438-2.7031-11.605-6.7734-13.094-0.66797-0.50391-1.2969-0.81641-1.8789-1.0508 0.003906-0.125 0-0.25391-0.019531-0.37891-0.39453-2.9648-2.6602-3.3828-3.625-3.5586-0.18359-0.035156-0.375-0.066406-0.57031-0.12109-0.41406-0.12109-1.3242-0.71094-1.7227-1.1719-0.17188-0.19531-0.28125-0.41797-0.40234-0.63281-0.27734-0.48828-0.62109-1.1016-1.2188-1.6875-0.66797-0.65625-1.3477-1.0391-1.8906-1.3477-0.23047-0.13281-0.46875-0.26172-0.70703-0.42969-0.22656-0.15625-0.39062-0.28516-0.52734-0.39062-0.87891-0.6875-1.4883-0.99219-2.9883-1.0859l-0.50391-0.027343c-0.066406-0.003907-0.12891-0.003907-0.17578-0.003907-0.078124 0-0.125 0.003907-0.12109 0.019532-0.089844-0.046875-0.18359-0.12109-0.42578-0.30078-0.85156-0.64062-1.3516-1-2.5352-1.418 0.019531-0.48438 0.14062-0.94531 0.29297-1.5039 0.21875-0.81641 0.48438-1.8047 0.42969-3.0312l0.007812-0.027344c0.039062-0.12109 0.070312-0.24609 0.089844-0.37109 0.23047-1.5078-0.58203-2.6523-1.0703-3.3359-0.10938-0.15625-0.23047-0.30078-0.30078-0.44922l-0.14844-0.375c-0.38672-0.98828-0.63281-1.5586-1.5781-2.7148-1.0742-1.3164-1.7266-3.2227-2.2539-4.9062-0.082031-0.25781-0.10938-0.53125-0.14844-0.79688-0.089844-0.64453-0.20703-1.4492-0.61328-2.2852-0.27344-0.55469-0.55859-0.95703-0.82422-1.3203-0.26562-0.35938-0.26562-0.35938-0.27734-0.58594-0.007812-0.18359 0.19531-0.48047 0.53125-0.95312 0.66016-0.92578 1.6602-2.3281 1.2812-4.418-0.039062-0.21094-0.10547-0.41406-0.20312-0.60547l-0.29297-0.58984c-0.83594-1.7266-2.332-2.2148-3.2266-2.5078-0.11328-0.039062-0.25391-0.082031-0.33203-0.082031-0.03125 0-0.050781 0.007812-0.058593 0.023437-0.011719-0.0625-0.023438-0.16797-0.023438-0.33203 0.007813-0.125 0.15234-0.48047 0.24609-0.71484 0.039063-0.09375 0.078125-0.19531 0.11719-0.29688 0.09375 0.050782 0.19141 0.097656 0.29297 0.14453 0.28906 0.12891 0.60156 0.19141 0.90625 0.19141 0.49609 0 0.99219-0.16406 1.3945-0.48438 0.65234-0.51953 0.96484-1.3555 0.80469-2.1758-0.12109-0.625-0.27734-1.4492-0.37109-2.2617 0.81641 0.14844 1.6641 0.22656 2.5312 0.22656 0.58203 0 1.1719-0.035156 1.7656-0.097656 1.1719-0.125 2.043-1.1367 2-2.3125-0.070312-1.9023-1.4219-2.9609-4.0117-3.1406-0.14062-0.011719-0.28125-0.015625-0.38281-0.015625-0.29297-0.33594-0.81641-0.85938-1.7148-1.082-0.17578-0.042969-0.5625-0.089844-0.74219-0.089844-0.46094 0-0.84766 0.10547-1.1602 0.22656-0.33203-0.17187-0.83594-0.40234-1.4766-0.40234-0.17969 0-0.40234 0.019531-0.64844 0.082031-0.30469-0.88672-0.84375-1.5742-1.3477-2.082-0.039062-0.074219-0.085937-0.14453-0.13281-0.21484-0.41016-0.58594-0.68359-1.3398-0.97656-2.1406-0.35938-0.98438-0.76562-2.1016-1.5078-3.1445-0.17188-0.24219-0.38672-0.50781-0.60938-0.78125-0.19531-0.24219-0.49609-0.60938-0.65234-0.85156 0.015625-0.035156 0.03125-0.066406 0.042969-0.10156 0.15234-0.36328 0.35547-0.85938 0.39844-1.4805 0.066406-0.95703-0.050781-1.75-0.14062-2.3867-0.11719-0.80859-0.16016-1.1875 0.023438-1.7031 0.55078-1.5352 1.5508-4.3242-0.42578-6.9375l-0.023438-0.074219c-0.039062-0.11719-0.085938-0.23047-0.14453-0.33984-1.1211-2.1211-1.5469-4.1992-1.0117-4.9492 0.20312-0.28516 0.51953-0.57031 0.88281-0.89453 0.53516-0.48047 1.1445-1.0273 1.6523-1.8086 0.72266-1.1055 0.91797-2.0742 1.0898-2.9297 0.046875-0.23047 0.09375-0.47266 0.16016-0.73438 0.17969-0.72656 0.42188-1.3438 0.65234-1.9375 0.51172-1.332 1.0938-2.8398 0.99219-4.9453-0.027344-0.53125 0.039062-0.95312 0.11719-1.4883 0.039063-0.25781 0.078125-0.51953 0.10938-0.79297 0.12891-1.1523-0.15625-1.9414-0.36328-2.5156-0.070313-0.19922-0.15625-0.41406-0.20312-0.69922-0.085938-0.54297 0.15234-1.2617 0.42578-2.0977 0.29688-0.91016 0.63281-1.9297 0.67969-3.0977l0.11719-0.57812c0.027344-0.14453 0.042969-0.28906 0.042969-0.4375 0.003906-1.5039 0.37109-2.1328 1.1797-3.5078 0.23438-0.40234 0.48828-0.83203 0.75-1.3164 0.41016-0.76172 0.88672-1.4648 1.3633-2.1719 0.64062-0.95703 1.3047-1.9453 1.8711-3.0938 0.65625-1.332 1.0781-2.6172 1.4844-3.8633 0.19922-0.60547 0.39453-1.2109 0.62109-1.8203 0.76562-2.0547 1.4648-3.8945 2.2773-5.6016 0.16406-0.34375 0.35156-0.69141 0.54688-1.0469 0.70703-1.3047 1.5742-2.9141 1.6094-4.7695l0.070312-0.35937 0.48047-1.2383 0.91016-2.3203c0.046875-0.11328 0.12109-0.20703 0.1875-0.3125 0.23828-0.37109 0.5625-0.88281 0.74609-1.5781 0.125-0.46875 0.13672-0.91406 0.13672-1.2734 0.14453 0.066407 0.44531 0.26953 0.64844 0.40625 0.73438 0.49609 1.7422 1.1758 3.0078 1.1758 0.09375 0 0.34766-0.015624 0.44531-0.027343 0.80859-0.10547 1.5-0.64062 1.7969-1.4023 0.30078-0.76172 0.16016-1.6211-0.35938-2.25-1.3711-1.6523-2.6445-2.668-4.1914-3.5039 0.56641-0.94922 0.88281-2.1719 0.35156-3.7422 0.1875-0.13672 0.36719-0.30469 0.53125-0.51172 0.51953-0.65234 0.63281-1.543 0.29297-2.3086-0.14844-0.33203-0.37109-0.61719-0.64844-0.83594-0.003906-0.19141 0-0.39844 0.003906-0.55078 0.011719-0.73047 0.023438-1.4844-0.21094-2.1953-0.16406-0.49609-0.35937-0.94141-0.55078-1.3711-0.31641-0.70312-0.45312-1.0312-0.42969-1.4922 0.011718-0.20312 0.066406-0.38672 0.10938-0.57031 0.12891-0.55469 0.30859-1.3125 0.18359-2.2695-0.10156-0.76953-0.41016-1.418-0.65625-1.9375-0.085937-0.17969-0.21484-0.45312-0.23437-0.45312 0.007812-0.19531 0.085937-0.51563 0.19922-0.87891 0.26172 0.30469 0.52344 0.58594 0.77344 0.82422 1.625 1.5273 2.7344 1.875 4.457 2.4102 0.38672 0.12109 0.78516 0.23438 1.1875 0.34766 1.082 0.30859 2.1914 0.625 2.9883 1.0781-0.53906 0.34766-1.1602 0.85156-1.6992 1.6641-0.32422 0.48828-0.49609 0.96484-0.61719 1.3164 0 0.003906 0 0.003906-0.003906 0.007813-1.1836 0.63281-1.5195 1.5938-1.5859 2.3203-0.10938 1.207 0.34375 1.9805 0.74219 2.418 0.015625 0.015625 0.027344 0.03125 0.042968 0.046875-0.23047 0.55078-0.32422 1.2031-0.089843 1.9453 0.38672 1.2461 1.4727 2.0195 2.8281 2.0195 1.043 0 2.0859-0.46875 2.7773-0.77734l0.28516-0.125 0.36328-0.12891c1.1367-0.39453 2.0156-0.79688 2.9375-2.4414 0.77734-1.3828 0.91797-2.3281 1.043-3.6133l0.03125-0.31641c0.035156-0.39062 0.054687-0.60547 0.089844-0.75391 1.0664-0.35547 1.5586-1.1484 1.7852-1.8086 0.38281-1.1211-0.054688-2.0742-0.38281-2.6758-0.003906-0.22656 0.003907-0.42578 0.011719-0.62109 0.015625-0.50391 0.03125-0.99609-0.03125-1.6484-0.03125-0.33594-0.085938-0.65234-0.14453-0.96094-0.10156-0.55078-0.11719-0.71875-0.054688-0.94922 0.066407-0.23047 0.13281-0.40625 0.19141-0.55469 0.33984-0.71875 0.48047-1.3477 0.35937-2.1367m-1.4219 10.938h0.027343-0.027343m208.61 15.738h0.027344-0.027344m214.82 3.2109h0.027344-0.027344m-194.3 4.1367h0.027344-0.027344m174.62 4.5547h0.027344-0.027344m-4.2656 7.7812h0.027344-0.027344m-2.0039 1.1484h0.027344-0.027344m-157.48 2.5586h0.027344-0.027344m47.078 14.133h0.027344-0.027344m-2.8086 2.0273h0.027344-0.027344m-15.719 5.5508h0.027344-0.027344m92.285 3.9062h0.027344-0.027344m-49.148 30.336h0.027344-0.027344m61.934 13.449c0.007812 0.007812 0.015625 0.011719 0.019531 0.019531 0.019531 0.14453 0.039062 0.26953 0.058594 0.35547 0.23828 1.1719 0.67969 1.8047 1.0664 2.3633l0.27734 0.41406c0.25391 0.39844 0.62109 0.69922 1.043 0.87109 0.44531 0.55859 1.0234 1.0117 1.6211 1.3555-0.035156 0.64062 0.10156 1.668 1.125 2.4375-0.082031 0.22266-0.16406 0.47656-0.21875 0.75781-0.23047 0.25781-0.60156 0.68359-0.80859 1.3281-0.21875 0.67188-0.16016 1.3047-0.09375 1.9453-0.015624 0.25-0.12109 0.47656-0.33984 0.92969-0.027344 0.058594-0.054688 0.11719-0.085938 0.17578-0.007812-0.003906-0.011719-0.007813-0.019531-0.011719-0.0625-0.44922-0.21875-0.92969-0.53906-1.4062-0.074219-0.10938-0.15234-0.20703-0.23047-0.29688 0.10938-0.5 0.13281-1.1367-0.17188-1.7969-0.23828-0.51562-0.64062-0.9375-1.1523-1.2188 0.042969-0.28516 0.03125-0.58203-0.039062-0.87109-0.37109-1.5039-1.4336-2.1367-2.0078-2.4766-0.019531-0.011719-0.039063-0.023438-0.058594-0.035156-0.023437-0.125-0.050781-0.26562-0.089843-0.42188-0.042969-0.16797-0.09375-0.31641-0.15234-0.45312 0.035156-0.16797 0.058594-0.36328 0.058594-0.57031 0-0.38281-0.058594-0.8125-0.13281-1.2461-0.03125-0.18359-0.070313-0.37109-0.074219-0.55078-0.003906-0.14453-0.023437-0.28906-0.058594-0.42578 0.36328-0.25781 0.73828-0.61719 0.98438-1.1328 0.007812-0.019531 0.011718-0.027343 0.019531-0.039062m-2.4336 25.254h0.027344-0.027344m9.7852 12.961h0.027344-0.027344m-6.0078 1.5234c0.09375 0.46094 0.25391 1.0039 0.55469 1.4648-0.027344-0.003906-0.054687-0.007813-0.082031-0.011719-0.31641-0.33203-0.70312-0.60938-1.1523-0.80859-0.14844-0.066406-0.30469-0.11719-0.46094-0.14844 0.015625-0.003906 0.035156-0.011719 0.050781-0.015625 0.41797-0.13281 0.78125-0.3125 1.0898-0.48047m3.332 9.9648h0.027344-0.027344m-124.05 66.07h0.027343-0.027343m6.9805 3.4219h0.027343-0.027343m-263.05-241.7c-0.15625 1.1641 0.42188 1.6133 0.80859 2.5859 0.51172 1.2891 0.14844 1.3242-0.19531 2.5352-0.30078 1.0664 0.035156 1.8008 0.12109 2.7305 0.09375 0.98828-0.03125 1.5273 0.023438 2.5039 0.023437 0.45313 0.66016 1.0078 0.48828 1.5078-0.23438 0.68359-0.82031 0.31641-1.1016 0.63672-0.8125 0.93359-0.80078 1.5781-0.91797 2.7539-0.10938 1.1367-0.19531 1.7227-0.76562 2.7344-0.66406 1.1836-1.0078 1.1562-2.1172 1.5625-0.4375 0.16016-1.5469 0.76562-2.293 0.76562-0.32813 0-0.58984-0.11719-0.69141-0.44531-0.27344-0.87891 1.6328-1.6875 1.6953-2.7148h-0.074219c-0.375 0-0.89062 0.11719-1.332 0.11719-0.53516 0-0.96484-0.17188-0.89453-0.9375 0.0625-0.67969 0.80859-0.54688 1.0898-0.95312 0.35156-0.50391 0.40625-1.1328 0.75-1.6523 1.2773-1.9141 3.2695-1.0586 2.8672-3.9922-0.11719 0.14062-0.29688 0.26562-0.42578 0.39453-1.332-1.7305-3.9297-2.1953-6.1133-2.875-1.5859-0.49219-2.3281-0.71484-3.5859-1.9023-0.90625-0.85156-1.8633-2.3945-2.9062-2.9648-0.77344 0.77734-1.8867 3.5898-1.8438 4.707 0.03125 0.83203 0.79688 1.7422 0.91016 2.625 0.12109 0.91797-0.26172 1.5742-0.30859 2.4219-0.082031 1.4922 0.65234 2.3555 1.0898 3.6836 0.33984 1.0273-0.38672 3.7148 0.9375 3.7969-0.33984 0.42578-1.4961 0.36719-1.6914 0.68359-0.52344 0.84375 0.54688 1.2891 0.75 1.8281 0.54297 1.457-0.11719 2.1953-1.2266 3.2773v0.15234c-0.16797 0.15234-0.30859 0.39453-0.41797 0.59375 2.5312 1.0078 4.1094 1.8594 5.9258 4.0469-0.050782 0.007813-0.10547 0.011719-0.16016 0.011719-1.0664 0-2.1523-1.3281-3.1914-1.5352-0.33594-0.066407-0.64453-0.10547-0.92188-0.10547-0.82031 0-1.3945 0.32422-1.6953 1.1836-0.1875 0.52734-0.003906 1.2695-0.14844 1.8164-0.16797 0.63281-0.62109 1.0664-0.84375 1.6289-0.5 1.2539-0.96484 2.4727-1.4688 3.7617l-0.15234 0.76953c0.046876 1.8125-1.1914 3.5039-1.9375 5.0781-0.87891 1.8477-1.6328 3.8477-2.3555 5.7812-0.6875 1.8477-1.1211 3.6602-2.0156 5.4766-0.92578 1.875-2.2188 3.3906-3.1953 5.1953-1.207 2.2344-2.1953 3.2266-2.1992 5.8867l-0.15234 0.76953c-0.007813 2.0117-1.3906 3.8242-1.0859 5.7891 0.17578 1.1289 0.67188 1.5586 0.55078 2.6211-0.097657 0.85938-0.28906 1.5898-0.23828 2.6367 0.12109 2.5234-1 3.8984-1.5781 6.2422-0.28906 1.1641-0.29688 1.9805-0.94922 2.9805-0.66797 1.0234-1.7617 1.6133-2.4844 2.625-1.4258 1.9922-0.19922 5.3047 0.85156 7.2969l0.15234 0.46094c1.4062 1.6016 0.94531 3.3203 0.3125 5.0859-0.63281 1.7656 0.11328 2.8867-0.011719 4.6953-0.046875 0.67969-0.72656 1.3555-0.43359 2.2578 0.25781 0.80078 1.168 1.7109 1.6641 2.4062 1.1328 1.5859 1.3203 3.6133 2.4727 5.2656v0.15234c0.53125 0.46875 1.0312 1.0156 1.2305 1.6953h-0.15234c-0.035156 0.003907-0.070313 0.003907-0.10547 0.003907-0.61719 0-1.0898-0.47266-1.4453-0.92578-0.12109 0.51953-0.30469 1.0469-0.60156 1.4727 0.066407-0.007813 0.13281-0.011719 0.19531-0.011719 1.8594 0 2.7656 2.9922 3.7969 4.1875 0.97656-0.86719-0.046875-1.8945 0.46875-2.8828 0.20312-0.39062 0.38672-0.51953 0.58203-0.51953 0.36328 0 0.77344 0.45312 1.457 0.53125 0.023438 0.003907 0.046875 0.003907 0.070313 0.003907 0.38281 0 0.66797-0.35938 1.1094-0.35938 0.066406 0 0.13281 0.007813 0.20703 0.027344 0.58203 0.14453 0.63672 0.69141 1.1914 0.94141 0.93359 0.42578 3.168-0.10547 3.2148 1.2031-0.51562 0.054687-1.0234 0.085937-1.5273 0.085937-1.5938 0-3.1406-0.28906-4.6211-0.97266-0.50781 1.6367-0.058593 3.9883 0.26172 5.668-1.0781-0.47656-2.0156-2.0156-2.7148-2.9141-1.3555 0.86719-0.28125 1.7227-0.29297 2.8633-0.011719 0.96484-0.78906 1.9141-0.79297 2.9531-0.011719 3.2734 2.8672 1.8281 3.8633 3.8867l0.30859 0.61719c0.39453 2.2031-1.9453 3.0273-1.8477 5.082 0.066406 1.3945 0.75781 1.6211 1.3281 2.7891 0.43359 0.87891 0.35156 1.8594 0.63672 2.7656 0.59375 1.8984 1.3281 4.0273 2.6562 5.6523 0.875 1.0742 0.92578 1.3672 1.3828 2.5078 0.33984 0.85156 1.3828 1.6562 1.2344 2.6133l-0.15234 0.46094c0.23828 1.9609-0.74609 3.1484-0.69141 5.082 0.039062 1.4258-0.09375 1.3203 1.3008 1.7695 1.0703 0.34766 1.3555 0.58203 2.2344 1.2461 0.93359 0.70312 1.0859 0.60156 2.3203 0.67969 1.3867 0.089844 1.2656 0.3125 2.3828 1.0859 0.8125 0.5625 1.582 0.82422 2.3047 1.5312 0.67969 0.66797 0.89844 1.5 1.5 2.1914 0.625 0.72266 1.875 1.5859 2.7812 1.8516 1.2344 0.36328 2.3789 0.09375 2.6094 1.8281-1.7969 0.50391-1.3203 1.125 0.10547 1.6758 1.1211 0.43359 1.9766 0.62109 3.0234 1.5391h0.15234c3.0977 1.043 6.2148 7.3438 5.4375 10.477-0.62109 2.5-1.0977 3.5938 1.9141 3.9961 1.8477 0.25 3.625 0.82031 5.4609 1.0781 2.375 0.33203 4.7148 0.019531 7.0586 0.62109 2.4805 0.007813 8.1445 0.89844 7.2383 2.8359l33.578 19.094 25.613 3.5078 0.63281-5.0586 15.344 2.2617c0.074218-0.003906 0.14453-0.003906 0.21484-0.003906 3.1133 0 1.6484 2.1172 3.3281 4.0156 1.6211 1.832 3.9688 3.3086 5.2461 5.3398 0.83984 1.3359 0.63281 1.8789 2.1328 2.6445 1.3125 0.66797 1.6289 0.76562 2.4336 2.0547 0.70312 1.1211 0.84375 1.9766 1.2656 3.1367 0.41797 1.1445 1.707 1.5391 2.0117 2.6484 0.29688 1.0859-0.33984 2.4023 0.10547 3.6172 0.46875 1.2852 1.5859 2.4102 2.6641 3.1914h0.15234c0.66406 0.74219 0.96484 1.6367 1.5469 2.4297 0.79297 1.0781 1.5664 0.90625 2.5742 1.5234 0.90625 0.55469 1.1328 1.5312 1.8828 2.1719 0.78516 0.66797 1.5938 0.51562 2.582 0.83594 0.74219 0.23828 1.0625 0.48047 1.3945 0.48047 0.25 0 0.50781-0.13281 0.95312-0.50391 0.39453-0.32812 0.41797-0.92188 0.94922-1.2852 0.1875-0.125 0.38281-0.14062 0.57422-0.14062h0.15625c0.24219 0 0.47656-0.023438 0.67969-0.26953 0.33984-0.38672 0.48828-2.1914 0.72656-2.7656 0.28125-0.67578 0.53906-1.9102 1.0312-2.4648 0.50781-0.57812 2.1758-1.3906 2.8438-1.6875 0.39844-0.17578 0.6875-0.24609 0.92188-0.24609 0.75391 0 0.90234 0.72266 2.1328 0.85547h0.15234c0.14062-0.003906 0.28906-0.007813 0.44922-0.007813 1.6875 0 4.25 0.28906 5.5664 0.96094 1.207 0.61719 1.1328 1.8867 2.1562 2.75 0.83984 0.70703 1.8867 1.0781 2.7305 1.8398 1.6992 1.5469 2.4414 3.9688 3.1953 5.9766 0.37109 0.98438 0.88281 1.9961 1.3398 2.9219 0.45312 0.91406 0.79687 2.8086 1.5078 3.4219l0.15234 0.30859c1.625 1.2891 3.1016 2.4922 3.6953 4.5 0.33594 1.1445-0.058594 1.8125 1.0391 2.707 0.69922 0.57031 2.1758 0.64062 2.5156 1.5703 0.25781 0.69922-0.46484 1.7031-0.32812 2.5547 0.10547 0.65625 0.42969 1.8242 0.64844 2.4844 0.37891 1.1562 1.3125 2.0469 1.6719 3.1289 0.30469 0.92578 0.27344 1.7539 0.92578 2.6133l0.46094 0.61719c0.92578 0.78906 1.6719 0.9375 2.6523 1.5312 1.0742 0.64844 1.3125 1.3516 2.5117 1.6992 1.9336 0.55859 3.7461 1.1016 5.7383 1.5391 1.7422 0.38281 3.5117 2.4844 5.2891 2.4844 0.042969 0 0.085938 0 0.12891-0.003907 3.125-0.17969 1.043-3.625 0.30078-5.0938-0.68359-1.3555-0.99219-1.7344-1.0234-3.2031-0.023437-1.1719-0.45312-2.3672-0.35156-3.5781v-0.15234c-0.21484-1.2852 0.77344-1.8594 1.418-2.7695-0.35937-0.35156-2.4805-0.66797-2.5977-1.0664-0.32812-1.1328 1.8359-0.61328 2.3945-0.94141 0.62109-0.36719 1.3203-1.7188 1.3281-2.5195 0.011719-1.2891-0.72656-1.3828-1.4297-2.4102 0.32812-0.33984 0.6875-0.42969 1.0625-0.42969 0.43359 0 0.87891 0.125 1.3086 0.125 0.24609 0 0.48828-0.039063 0.71484-0.17188 1.5586-0.88672 0.082032-1.6016-0.37891-2.457 1.5234-0.85547 2.5977-0.039062 3.4219-1.9531 0.40234-0.92969-0.47266-1.1367 0.67578-1.4141 0.027344-0.007813 0.0625-0.011719 0.097657-0.011719 0.47266 0 1.4102 0.625 2.0625 0.625 0.03125 0 0.0625 0 0.089843-0.003906h0.15234 0.070313c1.1602 0 2.2539-1.2891 0.72656-1.2891h-0.007812c0.15234-0.89063-2.6875-2-1.3828-3.0078 0.0625-0.046875 0.20312-0.070313 0.39844-0.070313 0.94141 0 3.125 0.47656 3.6602 0.52734 0.66016 0.066406 1.2891 0.10156 1.8867 0.10156 2.1367 0 3.9414-0.48438 5.8906-1.9648l0.15234-0.30859c0.91406-0.63281 1.5898-1.4609 2.2852-2.3125 0.27734-0.33984 0.30469-0.68359 0.63672-1.0195 0.44141-0.44531 0.91406-0.14062 1.2344-0.82031 0.42578-0.90234-0.32813-1.8203-0.64453-2.4609-0.79297-1.6133-0.87109-0.98828 0.50391-1.7031 0.47266-0.24609 1.2773-0.76953 1.7852-0.76953 0.15234 0 0.27734 0.046875 0.35938 0.16016 0.75781 1.0625-0.73828 1.3555 0.53125 2.1484 0.33203 0.20703 0.75 0.29297 1.2109 0.29297 1.5703 0 3.6484-1.0117 4.5742-1.7188 1.0547-0.80469 0.73047-1.3672 1.2812-2.5391 0.32031-0.68359 0.64062-0.98047 0.88672-0.98047 0.375 0 0.57812 0.67969 0.35156 1.7344 0.29688 0.085938 0.80469 0.1875 1.2734 0.1875 0.30469 0 0.58984-0.042969 0.79297-0.16797 0.95312-0.58203 0.39062-0.79297 0.73047-1.7383 0.29688-0.82422 0.59766-1.1406 0.85156-1.1406 0.54297 0 0.84766 1.4688 0.35547 2.5 0.74219 0.43359 1.4961 0.95703 2.3945 0.95703 0.058593 0 0.11719-0.003906 0.17969-0.007812h0.15234c2.5781 0 4.9961 1.5391 7.3281 1.5391 0.69141 0 1.375-0.13281 2.0547-0.48438-0.67187-2.0547-1.0273-1.6797 0.96094-1.9688 0.74609-0.10938 1.0742-0.25391 1.4102-0.25391 0.20703 0 0.41797 0.054687 0.73047 0.20312 0.10156 0.050781-0.125 0.60547 0.074219 0.72266 0.089844 0.054688 0.1875 0.070313 0.28906 0.070313 0.14844 0 0.30469-0.035157 0.45312-0.035157 0.082031 0 0.16406 0.011719 0.24219 0.050782 0.058593 0.027344 0.12109 0.039062 0.19141 0.039062 0.17188 0 0.36719-0.0625 0.54297-0.0625 0.074218 0 0.14844 0.011719 0.21094 0.042969 0.36719 0.1875 0.39453 0.90234 0.63281 1.0312 0.60938 0.32422 1.043 0.12109 1.6641 0.33594 0.68359 0.23828 2.6289 1.6602 2.3359 2.6055-0.40234-0.24609-0.91797-0.67578-1.25-0.67969-0.23828 0-0.37891 0.22266-0.31641 0.90234 0.12891 1.3477 1.0352 0.96875 1.9766 1.1367 0.78125 0.14062 1.3906 0.51172 2.1445 0.63672 0.015625 0.003906 0.027344 0.003906 0.042969 0.003906 0.28906 0 0.55859-0.47266 0.97656-0.47266 0.03125 0 0.066407 0.003906 0.10156 0.007813 0.36328 0.066406 0.77344 0.78125 1.207 0.89844 0.71094-1.0586 0.27734-2.793 1.8008-2.793 0.15625 0 0.33203 0.019532 0.53125 0.058594v0.15234h0.011718c0.76172 0 1.5 2.1211 2.3867 2.1211 0.30859 0 0.63672-0.25781 0.98828-0.95313 0.27734-0.55078-0.125-1.5664 0.007813-2.1719 0.29688-1.3672 0.71875-0.71875 1.5391-1.8047 0.69922 0.55469 0.83594 1.5117 1.6172 2.1836 0.21484 0.18359 0.82031 0.38672 1.125 0.62891 0.27734 0.21875 0.42188 0.73828 0.73828 1.0039 0.64453 0.54297 2.0898 1.082 3.2148 1.082 0.71094 0 1.2969-0.21484 1.4766-0.78125 0.73828-2.3438-3.3438-2.7656-4.6328-3.3203-2.3633-1.0195-2.4648-2.6797 0.3125-3.4609 1.1914-0.33594 1.8398-0.39063 0.77734-1.6094-0.37109-0.42578-0.66797-0.58203-0.95703-0.58203-0.58203 0-1.1211 0.63672-2.1523 0.96094-0.125-0.57422 0.48828-1.5391 0.078126-2.0859-0.16016-0.21484-0.64063-0.28125-1.1289-0.28125-0.48438 0-0.98438 0.066407-1.1992 0.12109-0.77734 0.20312-1.2578 0.64453-2.0859 0.64453-0.074219 0-0.15625-0.003906-0.23828-0.011718-0.75-0.074219-1.293-0.55469-2.0312-0.61719v0.15234c-0.53906-0.80469-1.9766-0.57031-2.2852-1.0586-0.26563-0.41797 0.13281-1.1406 0.4375-1.4141 0.27344-0.24219 0.41016-0.31641 0.50391-0.31641 0.14453 0 0.17188 0.18359 0.41797 0.18359 0.035157 0 0.078126-0.003906 0.125-0.011719 0.011719-0.003906 0.023438-0.003906 0.035157-0.003906 0.14062 0 0.45312 0.10938 0.79688 0.10938 0.13281 0 0.26953-0.015625 0.40234-0.0625 0.44141-0.14844 0.58594-0.92188 1.1094-0.98438h0.03125c0.48438 0 1.8281 1.1289 2.3711 1.3125 1.2305 0.41406 2.0781 0.83984 2.9805 0.83984 0.5625 0 1.1484-0.16406 1.8594-0.60156 0.87891-0.53906 2.5508-1.9883 3.8789-1.9883 0.45703 0 0.875 0.17188 1.2031 0.61328h0.15234c1.1328 0.007813 2.2266 0.074219 3.3281 0.078125h0.003906c0.71484 0 1.8828-0.41797 2.6953-0.41797 0.28516 0 0.52344 0.050781 0.6875 0.1875 0.48828-1.043 0.12109-2.6445 0.78516-3.5781 0.39844-0.55859 0.67969-0.78125 0.88281-0.78125 0.64844 0 0.48828 2.2656 0.78906 2.8203 0.375 0.69141 1.1562 0.65625 1.582 1.2539 0.50781 0.71094-0.24609 1.3672 0.79688 1.4258 0.027344 0 0.050782 0.003907 0.074219 0.003907 1.5 0 1.625-2.6328 2.8633-2.9844 0.17188 0.57812 0.44922 0.79688 0.78125 0.79688 0.93359 0 2.2734-1.7344 2.7656-2.0508-0.007812 1.1172 0.60938 1.2539 1.3984 1.2539 0.23438 0 0.48828-0.011719 0.74219-0.015625h0.15234c0.21875 0.019531 0.46484 0.039062 0.71484 0.039062 0.52344 0 1.0703-0.078125 1.418-0.37109 0.67578-0.56641-0.10156-1.1094 1.1992-1.5195 0.21094-0.066406 0.42188-0.09375 0.63281-0.09375 1.4766 0 2.6953 1.4609 0.82031 1.4727 0.55859 1.2969 2.832 1.2578 4 1.8477 0.39844-0.78906 1.1172-0.94531 1.8867-0.94531 0.375 0 0.76172 0.035156 1.1328 0.054688 0.30078 1.0977-0.97656 0.85547-1.3242 1.5977 0.75391 0.51172 1.9453 0.74609 2.4648 1.6055 0.69141 1.1406 0.14063 1.4922 1.3164 2.3164 0.53516 0.375 1.2812 0.55078 2.0664 0.55078 1.3711 0 2.8594-0.53125 3.543-1.4727l0.15234-0.30859c0.83594-1.1719 1.8477-0.51172 2.7031-1.3086 0.97656-0.90625 0.082032-1.3203 1.6211-1.8477 0.75781-0.26172 1.3984-0.37891 1.9805-0.37891 1.4805 0 2.543 0.78125 3.9805 2 0.375 0.32031 0.79297 0.62109 1.1523 0.91406 0.12891 0.10547 1.2422 0.89063 1.2734 0.92578 0.71094 0.8125 0.58203 1.9336 1.6211 2.8242 0.69141 0.59375 1.918 1.4219 2.7305 1.8398 1.1133 0.57422 1.7148 0.29297 2.5742 1.3438 1.4766 1.7969 2.2109 5.4062 2.0781 7.707v0.46094c-0.51562 0.77734-1.0078 2.9297-1.0469 3.8477-0.074218 1.6602 1.0078 2.2656 1.1953 3.6602 0.71094-1.0352 0.75781-1.6406 0.77344-2.6133 0.011719-0.92969-0.3125-1.5195 0.27344-1.5195 0.17578 0 0.43359 0.050781 0.80469 0.16406 1.1055 0.33203 1.625 1.3086 1.3203 2.3828-0.3125 1.1016-1.9062 1.6094-2.0781 2.6211-0.16797 0.99219 1.1875 1.9492 1.6758 2.7539 0.5625 0.92969 0.93359 2.0234 1.4648 3.0117 0.21094 0.39844 1.0703 1.9531 1.8984 1.9531 0.12109 0 0.24219-0.035156 0.36328-0.10938 0.29297-0.1875-0.074218-2.3711 0.66406-2.3711 0.14453 0 0.33203 0.082031 0.57422 0.28125 0.67969 0.55469-0.13672 3.1406 0.14062 3.9648 0.60938 1.8242 2.0234 0.69531 2.6094 2.4531l0.15234 0.15234c-0.10938 1.082 0.50391 1.6719 0.99609 2.5391 0.47266 0.83203 0.69531 2.0898 1.3047 2.8047 0.21484-0.29688 0.65625-0.41797 1.1797-0.41797 1.2891 0 3.1016 0.72656 3.4414 1.3867-0.26172 0.11719-0.50391 0.50391-0.73047 0.61328 0.88672 0.96094 4.2891 2.957 4.2695 4.0195-0.074219 0.035156-0.16406 0.050781-0.26172 0.050781-0.46875 0-1.1719-0.31641-1.6211-0.31641-0.30469 0-0.49609 0.14453-0.41406 0.63672 0.12891 0.75391 0.80469 0.93359 1.4961 0.93359 0.45703 0 0.92188-0.078126 1.2305-0.12109 1.7422-0.23438 5.418-1.4961 5.9023-3.4062 0.29297-1.1523-0.46094-2.4102-0.019531-3.6172 0.50391-1.3672 0.94141-1.7461 0.93359-3.4062-0.007813-2.207 0.54688-4.3555 0.3125-6.5938-0.29297-2.8008-2.3867-4.8281-2.9297-7.4258l-0.61719-0.46094c-2.0039-3.8008-3.6367-7.5742-6.043-11.215-0.53516-0.80859-1.2227-1.668-1.5-2.6445-0.23438-0.82812-0.054687-1.7031-0.30078-2.5039-0.50391-1.6211-2.3398-4.043-3.3945-5.3555l-0.30859-0.30859c-0.28906-3.3477-3.4258-6.1797-3.9922-9.6094-0.50391-3.0547-1.7812-6.0195-1.6914-9.1641 0.0625 0.003906 0.12109 0.007813 0.17578 0.007813 1.3242 0 1.0352-1.5781-0.18359-1.75 0.30078-0.20312 1.0625-0.42578 1.3047-0.6875 0.43359-0.46875-0.25781-0.81641 0.66016-1.25-0.12891-0.12109-0.30469-0.25391-0.39453-0.34375 0.28516-0.25391 0.3125-0.12109 0.50391-0.42578-0.11328-0.15234-0.35156-0.22656-0.49609-0.33203 0.066406-0.12109 0.15234-0.22656 0.25391-0.31641-0.20703-0.125-0.60547-0.69922-0.72656-0.77734 0.83984-0.089844 3.1172-0.85938 1.3516-1.8398h-0.15234c0.77344-0.22656 1.6758-2.4141 2-3.1992 0.64844-1.5586-0.25781-2.6914-0.13672-4.0234 0.78906 0.19141 0.84375 1.0781 1.6602 1.2461 0.12109 0.28125 0.33984 0.40625 0.55859 0.40625 0.35156 0 0.70703-0.3125 0.70312-0.81641-0.007812-0.87891-1.2227-0.51953-1.0703-1.5586 0.085937-0.019531 0.17188-0.027344 0.25-0.027344 0.41797 0 0.76172 0.20703 1.1602 0.20703 0.035156 0 0.070312 0 0.10547-0.003907 1.2266-0.11719 0.57031-0.20703 1.4414-0.67969 1.1953-0.65234 1.9922-0.83594 3.1602-1.9961-0.10156-1.1641 1.75-2.8086 2.5156-3.5586 1.2969-1.2695 1.1836-1.7812 3.1797-1.8672 0.13281-1.0039-0.085938-1.7148-0.57422-2.4609 1.2305-0.22266 0.79297-2.0195 1.3203-2.9219 0.52344-0.89844 1.8164-1.918 2.5898-2.6875 2.0078-1.9883 3.9297-1.2344 6.2383-2.082h0.30859c0.007813-2.125 0.63672-3.3164 1.5273-5.082 0.45312-0.90625 1.4062-1.5898 1.8672-2.4297 0.078124-0.14062 0.39844-0.16797 0.48047-0.37109 0.19531-0.48047-0.37891-0.45703-0.30859-0.76562 0.12109-0.51953-0.11328-0.88672 0.16016-1.3477 0.59375 0.22266 0.61328 1.2031 1.2383 1.2461h0.015625c0.47266 0 1.4492-1.3906 1.8594-1.6367 1.1094-0.66797 2.8047-0.76953 3.832-1.7656 0.17969 0.14844 0.35938 0.21484 0.53906 0.21484 1.0898 0 2.0781-2.4609 2.4961-3.1641-0.089844-0.023437-0.17969-0.035156-0.26172-0.035156-0.40625 0-0.74219 0.27734-0.97656 0.74609-0.070312-0.48828-0.25-0.66016-0.49219-0.66016-0.57812 0-1.5195 0.98047-2.2539 1.1133-0.4375 0.078125-0.98047 0.15234-1.5234 0.15234-0.85156 0-1.6992-0.1875-2.1172-0.84766 1.332-0.62891 4.457 0.46484 3.9805-1.9805 0.41016-0.30078 0.47266-0.76172 0.72266-1.1055-1.3242-0.32812-3.957-0.74219-4.7383-1.9727 1.1719 0.03125 2.3867 0.42969 3.5312 0.58203-0.14453-0.45312-0.16797-1.0938-0.03125-1.5508 0.51172 0.23047 0.79688 0.68359 0.80469 1.2578 0.32422-0.20703 0.59375-0.27734 0.84766-0.27734 0.50781 0 0.93359 0.28125 1.5703 0.28125h0.089843c1.5078-0.0625 1.6719-0.85156 2.5547-1.8477v-0.15234c0.29297-1.2266 1.2227-1.1875 1.5391-2.1523 0.19922-0.60938-0.15625-2.8125-0.80078-3.0625-0.054688-0.023438-0.10938-0.03125-0.16406-0.03125-1.0078 0-1.8047 3.5742-2.3242 3.5742-0.16406 0-0.30078-0.36328-0.41016-1.3164-0.13672-1.2383 0.58984-1.4961-1.0117-1.6289-0.066406-0.003906-0.12891-0.007812-0.19531-0.007812-1.0781 0-1.8164 0.76172-2.6602 1.0234-0.37891 0.11719-0.70703 0.17188-0.98828 0.17188-1.7812 0-1.7305-2.1875-1.5977-4.1445h0.074218c1.457 0 0.42969 1.6719 1.0742 2.2578 0.22656 0.20703 0.44141 0.29297 0.64453 0.29297 0.64844 0 1.1367-0.89062 1.3047-1.4414 0.27734 0.28125 0.89844 0.52344 1.1875 0.76562 0.20703-1.6484 0.71094-1.2852 1.8398-1.832 0.10937-0.054688 1.0234-0.47656 1.0234-0.47656 0.61719-0.83984-0.046875-0.35156-0.085937-0.91406-0.042969-0.65625-0.10938-1.8516-0.28125-2.4492-0.027344-0.089844-0.67188-0.25781-0.79688-0.83984-0.085937-0.40234 0.22656-1.1133 0.31641-1.4922l-0.26953-0.089843c-0.007813-0.93359 0.027343-1.0508-0.84766-1.3672-0.30859-0.11328-0.55859-0.15625-0.78125-0.15625-0.48828 0-0.85938 0.21094-1.4805 0.39844-0.42187 0.12891-0.83594 0.1875-1.2344 0.1875-1.3125 0-2.4766-0.65625-3.3672-1.6992v0.1875c-0.5625-0.33594-1.2344-0.80078-1.8398-1.0703-0.66797-0.29688-1.4922-0.042969-2.1055-0.35547-1.2578-0.64453-0.14844-0.77734 0.86719-0.77734 0.45312 0 0.88672 0.027344 1.082 0.046875 1.75 0.18359 2.3242 0.99219 3.6367 2.0117 0.36719 0.28516 1.0742 0.49609 1.6719 0.49609 0.76953 0 1.3516-0.35156 0.77734-1.3398-0.73828-1.2773-2.9531-1.3984-4.043-2.1016-0.94922-0.61328-0.59766-0.77344 0.085937-0.77344 0.72266 0 1.8164 0.18359 2.1289 0.20703 0.074219 0.003906 0.14453 0.007812 0.21094 0.007812 1.6406 0 0.83594-1.625-0.49219-1.8867-1.8555-0.36328-2.7539-1.3594-4.0469-2.7266-0.32422-0.34375-1.7422-1.8789-0.77344-2.1719 0.03125-0.007812 0.0625-0.015625 0.097656-0.015625 0.62891 0 1.6562 1.5859 2.0078 1.9258 0.46484 0.44531 1.5391 1.3086 2.2812 1.3086 0.035156 0 0.066406 0 0.10156-0.003906 1.1445-0.13281 0.58203-1.3906 0.98828-2.0742v-0.09375c-0.35156-2.0234-2.9766-1.7461-4.2734-2.6289-0.76172-0.51953-0.64062-0.67969-0.17188-0.67969 0.76172 0 2.4453 0.42969 2.7656 0.45703 0.125-1.5117-3.9336-2.2852-3.0312-4.1719 0.38281 0.30469 0.76562 0.71484 1.2617 0.71484h0.054688c0.03125-0.91797-0.10938-1.6328-0.29688-2.5039-0.22266-1.0156 0.24219-1.6016 0.21484-2.5586v-0.09375c0.078125-0.74219-0.17578-1.2188-0.49219-1.8594-0.42969-0.87891-0.5-0.85156 0.24609-1.6016 1.0117-1.0156 2.0586-2.2422 2.8711-3.3984 0.49609 0.125 1.1094 0.82031 0.85938 1.3398-0.19922 0.41406-1.1211 0.61328-1.418 1.0078-0.12891 0.16797-1.0469 1.4766-1.0391 1.6016 0.019531 0.26562 0.125 0.35547 0.27734 0.35547 0.29297 0 0.75-0.33594 1.0352-0.35156 0.023438 0.57031 0.20703 1.1914 0.20703 1.707 0 0.30859-0.23828 0.46094-0.19531 0.82422 0.039062 0.35547 0.27734 0.42578 0.35547 0.74609 0.21094 0.83594-0.011719 0.96875 0.67578 1.5078 0.57422 0.44922 1.2734 0.58984 1.4766 1.418-0.14844 0.078126-0.33984 0.10156-0.54297 0.10156-0.20703 0-0.42578-0.023437-0.62109-0.023437-0.18359 0-0.34766 0.019531-0.46094 0.09375-0.30859 0.21094-0.36328 1.3789-0.14062 1.793 0.28125 0.53125 0.67578 0.53125 1.3281 0.55859h0.023438c0.33203 0 1.1133-0.27734 1.3867-0.27734 0.027343 0 0.046874 0.003906 0.066406 0.007813 0.74219 0.26172 0.027344 1.1133 0.019531 1.6055-0.011719 0.87891 0.50391 0.51953 0.85547 1.0391 0.65234 0.96484-0.67578 2.2109 0.48438 2.2109 0.16016 0 0.37109-0.023438 0.63672-0.074219l0.09375-0.09375c0.75 0.80859 0.30469 0.98828 0.085937 1.75-0.082031 0.28125 0.007813 0.70703-0.12109 0.95703-0.15625 0.30078-0.625 0.4375-0.81641 0.79297-0.35547 0.66016-0.52734 4.2227 0.32812 4.5352 0.066406 0.023437 0.12891 0.035156 0.18359 0.035156 0.66016 0 0.44922-1.6484 0.63672-2.1289 0.25-0.64062 0.77344-1.2891 1.1602-1.8438 0.52734-0.75391 0.8125-1.1562 1.0078-2.1289 0.12109-0.60156 0.19141-1.2227 0.34766-1.832 0.28906-1.1055 0.96484-1.793 1.0391-2.9805 0.023438-0.39062-0.13281-1.0117-0.011719-1.3867 0.14062-0.42969 0.59375-0.66797 0.75781-1.125l0.09375-0.09375c-0.070313-0.83203 0.82812-1.6914 0.46875-2.5781-0.32031-0.79688-1.4492-0.38281-1.3008-1.3945 0.18359-1.25 1.5195-1.043-0.22656-1.5742-0.82031-0.25-2.0391-0.97656-2.2305-1.8789h-0.5625c-0.49609-0.77734-0.84766-1.0781-1.043-2.0234-0.042968-0.21094-0.089843-0.79688-0.17969-0.98438-0.21094-0.4375-0.42188-0.37891-0.73047-0.74609-0.94141-1.1289-1.125-3.3984-0.015625-4.4883 0.35938 1.082-0.074219 2.2383 0.48438 3.3359 0.52734 1.0312 0.96094 2.3125 2.0664 2.6719 0.44922 0.14844 0.82031 0.16016 1.293 0.16797h0.011719c0.31641 0 1.0195-0.21484 1.3711-0.21484 0.058594 0 0.10547 0.003906 0.14062 0.019531 0.72266 0.27344 0.20703 1.8945 0.44141 2.6289 1.1094-0.26172 1.8672-2.2383 2.3203-3.1953 0.25781-0.54297 0.36719-1.1562 0.62109-1.6797 0.34375-0.71484 0.96484-1.0273 1.3867-1.6875 0.86328-1.3477 1.332-3.0312 1.4102-4.5938 0.015625-0.30078 0.066406-0.72656 0-1.0117-0.09375-0.40234-0.34766-0.51953-0.45703-0.85938-0.17188-0.53516-0.23828-1.3359 0.078125-1.8125l0.003906-0.1875c0-0.65625 0.1875-1.6992-0.28125-2.2383-0.77734-0.89062-1.7148-0.10156-1.7852-1.6133-0.066406-1.4531 0.76562-1.8477 1.5508-2.7852 0.61328-0.73047 1.3672-1.7695 1.832-2.5742l0.1875-0.46875c0.53906-0.87109 1.7852-1.5508 2.6367-2.1328 1.1641-0.79297 2.582-1.4297 3.9414-1.8164 1.0977-0.31641 2.2227-0.50781 3.3125-0.91797 1.2539-0.47266 2.2617-1.3008 3.5508-1.7109l0.46875-0.1875h0.027343c0.58594 0 1.3906-0.38672 1.8555-0.72266 0.74219-0.53516 0.66016-0.91016 0.74609-1.8125 0.085937-0.89062 0.19531-2.9336 1.2695-2.9336 0.070313 0 0.14453 0.007812 0.22656 0.027344 0.11719 0.5625 0.3125 0.82031 0.51953 1.2539 0.23828 0.49609 0.24219 0.71875 0.47266 0.71875 0.082032 0 0.19531-0.027344 0.35547-0.082031 0.375-0.125 1.0078-0.78906 1.2891-1.0625 0.39453-0.37891 0.53906-0.98828 0.98437-1.3672 0.17188-0.14453 0.33594-0.21094 0.48047-0.21094 0.54297 0 0.85156 0.875 0.58984 1.582-0.36328 0.98047-1.957 1.0781-2.1328 2.2227h0.011719c0.60156 0 1.3086-0.92188 1.8828-1.2188 0.73047-0.37891 1.2969-0.51172 1.8633-1.1523 0.86328-0.98047 1.9844-2.0547 3.3867-2.1992 0.003906 0.22656 0.15234 0.60938 0.17578 0.80859 1.2695-1.3164 0.015625-3.9922-1.1055-4.9531-0.17969-0.15234-0.93359-0.70703-1.4141-0.70703-0.21484 0-0.375 0.10938-0.40625 0.42188-0.050782 0.55859 0.84766 0.40234 1.082 0.67188 0.36719 0.42578 0.125 0.84375 0.23828 1.3086 0.18359 0.74609 0.80078 1.375-0.10156 1.9766-0.23438 0.15625-1.3125 0.39844-1.8789 0.39844-0.125 0-0.22656-0.011719-0.28906-0.039062-0.46094-0.20703-0.41797-0.67578-0.63281-1.043-0.26953-0.46094-0.3125-0.52734-0.74609-0.89844-0.39844-0.33984-0.46875-0.074219-0.73438-0.66016-0.11719-0.25781-0.03125-0.66797-0.11328-0.95703v-0.09375c-0.37109-0.46094-0.96484-0.85156-1.4883-1.1289-0.38281-0.20313-0.56641-0.27734-0.74609-0.27734-0.19141 0-0.37891 0.082031-0.79297 0.18359-0.25 0.0625-0.4375 0.10156-0.58203 0.10156-0.33984 0-0.40625-0.24219-0.33984-1.043 0.10547-1.2227 0.45703-0.78516 1.3164-1.3398 0.60938-0.39063 0.60156-0.91016 0.95703-1.4805 0.53125-0.85156 0.92188-0.58594 0.074219-1.1289-0.60938-0.38672-0.90234-0.082031-1.1484-1.0391-0.14453-0.57422 0.16016-1.3711-0.35156-1.7812l-0.09375-0.28125c0.003906-1.1406 0.375-1.4922 0.75781-2.4414 0.25391-0.625-0.011718-1.3438 0.29297-1.9961 0.375-0.80078 0.87891-1.0547 1.0156-1.9727 0.089844-0.60938-0.12891-1.6094 0.10156-2.1602 0.18359-0.44141 0.75-0.60938 1.0078-1.0078 0.21094-0.32422 0.14062-0.84766 0.38281-1.1602 0.25391-0.32812 0.82031-0.37891 1.0312-0.71875 0.20312-0.32812-0.003906-0.69141 0.12891-1.0195 0.20312-0.50391 0.34766-0.67578 0.48047-0.67578 0.25391 0 0.46484 0.64453 1.0078 0.82812 0.11719 0.039063 0.22656 0.058594 0.32812 0.058594 0.60938 0 0.91406-0.66797 1.3633-1.0742-0.18359-1.0195 1.0742-1.2031 1.6055-1.7852 0.5625-0.61719 0.78125-1.4961 1.0469-2.2539 0.32812-0.94531-0.003906-0.96484-0.019531-1.9219-0.011719-0.65234 0.49609-1.3945 0.67188-2.0273 0.99219 0.16797 0.72266 1.0547 0.91797 1.7773 0.125 0.45703 0.57031 1.332 1.1641 1.332 0.10938 0 0.22656-0.03125 0.34375-0.097656 0.5625-0.32031 0.21094-1.4531 0.28125-2.0469 0.089844-0.75781 0.16797-0.78516 0.43359-0.78516h0.058594c0.16016 0 0.375-0.007812 0.68359-0.13281 0.55078-0.22656 0.83984-0.79297 1.2383-0.79297 0.14844 0 0.30859 0.078125 0.50391 0.27344 0.23047 0.23047-0.16016 0.88672 0.46875 0.97266 0.039063 0.003906 0.078125 0.007813 0.10938 0.007813 0.40625 0 0.10156-0.43359 0.35547-0.69922 0.63672-0.66016 0.73438-0.69531 1.0352-1.5938 0.33984-1.0195 0.47266-0.50391 1.4102-0.84766h0.1875c0.44922-0.78516 1.1875-2 2.1719-2.1055 0.050782 0.36328 0.17578 0.50781 0.33984 0.50781 0.58203 0 1.6758-1.8398 1.7812-2.2617-0.38672-0.125-1.0898 0.074218-1.3711-0.27344-0.21484-0.26562 0.078125-1.0352 0.0625-1.332-0.058594-1.2695-0.54688-1.4492-1.4883-1.4492-0.14453 0-0.30078 0.003906-0.46484 0.007812-0.16016 0.003907-0.32812 0.023438-0.49219 0.023438-0.26953 0-0.53125-0.042969-0.75-0.25781-0.44141-0.42969-0.14453-0.91406-0.26172-1.4883-0.10938-0.53906-0.38672-0.51172-0.64062-1.0508-0.23047-0.49219 0.28516-1.0078-0.375-1.3164h-0.007812c-0.10938 0-0.14063 0.0625-0.097657 0.1875l-0.94141 0.09375c-1.5078-0.14453-2.0742-0.64062-2.1602-2.1602-0.058594-1.0312-0.089844-2.875-0.75-3.6641v0.09375c-0.27734-3.3594-2.1602-6.6016-2.6328-9.9609l-0.09375 0.09375c-1.2852-0.58594-2.3398-1.5078-3.5508-2.2148-0.4375-0.25781-0.81641-0.35938-1.1641-0.35938-0.83203 0-1.5039 0.59375-2.4688 1.1211-0.51953 0.28516-2.0039 1.4023-2.9727 1.4023-0.26172 0-0.48438-0.082031-0.64062-0.28125-0.37109-0.48047 0.46094-1.3633 0.12891-1.8789-0.16406-0.25391-0.36719-0.34375-0.58594-0.34375-0.41406 0-0.88281 0.31641-1.2461 0.39453-0.19531 1.0469-1.1914 2.3906-1.6719 3.3867-0.55859 1.1602-1.1445 2.3555-1.5938 3.5664-0.38281 1.0352-0.64062 1.9375-0.58594 3.0664 0.0625 1.2852 0.65625 2.2461-0.054688 3.3789-0.39453 0.62891-1.0703 1.2969-1.0742 2.1055-0.003907 0.73047 0.72656 1.1562 0.66016 1.8828v0.375c-0.14062 0.12891-0.24609 0.25-0.27734 0.44141 0.070312-0.019531 0.14844-0.027343 0.23047-0.027343 0.35547 0 0.74609 0.17578 0.80469 0.52734 0.097656 0.58203-0.49219 0.58984-0.67188 0.95703-0.34766 0.72656-0.20703 1.5117-0.67188 2.2383-0.53516 0.83594-1.3086 1.1445-1.0508 2.2461 0.11328 0.49609 0.66016 1.6719-0.03125 1.6719-0.13281 0-0.3125-0.042968-0.55078-0.14453-0.039063 0.28125 0.12891 1.082-0.03125 1.3086-0.12891 0.1875-0.21484 0.25391-0.28516 0.25391-0.16016 0-0.24609-0.34375-0.62109-0.39062-0.070313-0.007812-0.13281-0.011718-0.19141-0.011718-0.95313 0-0.74609 1.1406-1.5312 1.4727-0.085938 0.035156-0.17188 0.046875-0.25781 0.046875-0.17578 0-0.35938-0.046875-0.53125-0.046875-0.13281 0-0.26172 0.027344-0.38281 0.12891-0.27344 0.23047-0.39062 1.1211-0.5 1.4453-0.34766 1.0234-0.53516 1.4141-1.5273 1.8984l-0.5625 0.28125c-0.13672-0.007812-0.27734-0.011719-0.42188-0.011719-1.4414 0-3.1328 0.33984-4.4648 0.64062-3.0039 0.67969-6 1.5352-9.0234 2-1.5117 0.23438-2.9766 0.48828-4.4766 0.89062-1.4062 0.375-3.082 1.1875-4.582 1.1875-0.11328 0-0.22656-0.003906-0.33984-0.015625l-0.83203 0.46484c-1.2227 0-2.9414 2.0117-3.6875 2.8828-0.95312 1.1172-1.7305 2.5312-2.3438 3.8438-0.67578 1.4453-0.89062 2.3828-2.3086 3.2266-0.47266 0.28125-1.8438 0.98047-2.0312 1.5195-0.35547 1.0273 0.5625 0.64453 1.1953 0.87109-0.011718 0.070312-0.023437 0.14453-0.039062 0.21484 0.070312-0.003906 0.13672-0.007813 0.19531-0.007813 1.0508 0 0.42188 0.66797 0.15234 1.2969-0.46484 1.082-0.019531 0.55078 0.29688 1.5898 0.69922 1.2344 1.5 2.2891-0.003906 2.9883-0.71875 0.33594-0.78125 0.12109-1.3906 0.92578-0.51172 0.67969-0.98047 1.1562-1.6875 1.6133-1.6016 1.0352-4.3281 2.3242-6.5742 2.3242-0.57422 0-1.1172-0.085937-1.6016-0.27734l-0.10156-0.10156c-0.042968 0-0.085937 0.003906-0.12891 0.003906-1.043 0-2.0312-0.51953-3.1094-0.51953-0.11328 0-0.23047 0.007813-0.34766 0.019531-1.5508 0.17188-2.6992 1.3359-4.1797 1.6914-0.77734 0.1875-1.5352 0.25391-2.2031 0.75-0.85938 0.64062-0.64844 0.84766-0.24219 1.6914 0.39062 0.80859 0.44141 1.5938 0.82031 2.3438 0.42578 0.83203 0.82031 1.1172 0.023438 1.9883l-0.19922 0.5c-0.60547 1.8594-3.125 3.6797-4.5859 4.8828-1.5391 1.2656-3.2227 2.4414-4.8945 3.5039-1.875 1.1914-3.582 2.6523-5.4883 3.7695-2.0078 1.1758-3.9062 2.0898-5.6289 3.7109-1.043 0.98047-1.5469 0.6875-2.8359 0.99609-1.0547 0.25391-1.9492 0.89062-2.9648 1.2656-0.60547-0.035156-0.80469-0.68359-1.3203-0.80469-0.10547-0.023437-0.20312-0.035156-0.29688-0.035156-0.37891 0-0.65625 0.1875-1.0781 0.36328-0.51172 0.21484-0.99219 0.38672-1.4883 0.38672-0.3125 0-0.63672-0.066407-0.97656-0.23828-0.125-0.0625-0.54297-0.19922-0.60156-0.29297-0.13672-0.21484 0.10156-0.55078 0.089844-0.57812-0.29688-0.54297-0.03125-0.32031-0.86328-0.60547-0.86328-0.29688-2.1641-1.0938-1.9297-2.1836l0.097656 0.19922c-0.21875-1.4297 1.3516-2.6367 1.4922-4.0039 0.10156-0.99219-0.11328-1.2773 0.62109-2.0195 0.62891-0.63672 0.85547-1.0898 1.2891-1.8281 0.29297-0.49219 0.41406-0.125 0.57812-0.8125 0.070312-0.29297-0.14453-0.83203-0.003906-1.0938 0.17187-0.31641 0.30469-0.43359 0.41406-0.43359 0.30078 0 0.45312 0.84766 0.91016 0.84766 0.027344 0 0.050782-0.003906 0.078125-0.007812 0.87891-0.17969 1.4062-4.1562 1.0898-4.9922l-0.19922-0.39844c-0.16016-1.7773-1.0312-3.7891-1.7227-5.3789-0.38281-0.88672-0.15625-1.9102-0.50781-2.7461-0.24219-0.57812-1.5938-2.1016-2.1758-2.4883-0.22656-0.15234-0.46094-0.21094-0.69922-0.21094-0.71484 0-1.4492 0.54688-2.043 0.86328-1.0586 0.55859-1.4961 1.2539-2.1758 2.25-0.40234 0.58984-0.62109 1.9141-1.0273 2.3398-0.22656 0.23828-0.90234 0.36328-1.4727 0.36328-0.29688 0-0.56641-0.035156-0.72656-0.10938-1.4141-0.64453-0.64062-1.9453-0.49609-2.9297 0.089844-0.60938-0.22656-1.0781 0.089844-1.6289 0.19922-0.34375 1.0742-1.0312 1.3984-1.3828l0.30078-0.19922c0.054687-1.0156 0.94922-0.90234 1.4883-1.4922 0.50391-0.55078 0.41016-1.4531 0.52734-2.125 0.19922-1.1328 0.9375-3.3594 0.078125-4.2578l-0.10547 0.11328c-0.25-0.75391-2.3242-2.3242-1.3008-3.0977 0.12891-0.097656 0.28906-0.125 0.44922-0.125 0.18359 0 0.36328 0.035156 0.47656 0.035156 0.19141 0 0.20703-0.10156-0.22656-0.65625-0.39062-0.49609-1.1641-0.5625-1.5469-1.0938-0.32031-0.44531-0.17578-1.1289-0.71094-1.4297-0.11328-0.0625-0.29297-0.085938-0.49609-0.085938-0.37891 0-0.83984 0.074219-1.1016 0.074219h-0.03125c-0.91016-0.023437-0.94141-0.28516-1.6797-0.60547-0.71094-0.30469-0.95703 0.015625-1.5977-0.69141h-0.097656c-0.55078-0.31641-0.80859-1.0586-1.4531-1.2891-0.16016-0.054688-0.33594-0.074219-0.51953-0.074219-0.39063 0-0.81641 0.085937-1.1992 0.085937-0.089844 0-0.17969-0.003906-0.26172-0.015625-0.74609-0.10547-1.3828-0.37109-1.9688-0.37109-0.53906 0-1.0391 0.22266-1.5508 0.99219-0.89453 1.3477 1.6797 2.6445 0.70703 3.2734-0.57031 0.36719-1.3008-0.09375-1.957 0.51563-0.49609 0.46094-0.78125 1.0703-0.81641 1.6758-0.082031 1.4219 0.26563 2.3828-0.34766 3.7734-0.39062 0.89062-0.74609 1.2891-1.0234 1.2891-0.34766 0-0.57031-0.63672-0.57031-1.7305 0-0.41406 0.23438-1.9336-0.015625-2.2227-0.12891-0.14844-0.23047-0.21094-0.32031-0.21094-0.39844 0-0.44922 1.2734-0.61719 1.5781-0.74219 1.3398-2.2734 0.58203-2.7305 2.0938-0.14453 0.47266-0.046874 0.62891-0.34766 1.0586-0.23828 0.33984-0.61719 0.23438-0.75391 0.71875-0.13281 0.46484 0.20703 1.5547 0.20703 2.1211 0 1.9023-0.24219 3.5039-1.3945 5.0742l-0.30078 0.59766c-0.058594 0.70312 0.375 1.3242 0.47656 1.9961 0.10156 0.66406-0.14844 1.125-0.23047 1.7383-0.20312 1.4844 0.84766 2.2969 1.4297 3.5391 1.1523 2.4688 1.918 5.0898 1.9141 7.8164-0.003906 1.5781-0.10937 2.9141-0.5 4.4336l-0.097656 0.10156c0.26953 2.4531-2.7539 6.0625-4.5391 7.4219-0.62891 0.48047-2.0859 0.92969-3.2109 0.92969-0.38672 0-0.73047-0.050781-0.99219-0.17578-1.4336-0.67188-1.1133-2.793-1.6406-4.0078-0.41797-0.96484-1.3359-1.4609-1.793-2.3711-0.35938-0.71484-0.27344-1.3789-0.27344-2.1953v-0.10156c0-1.2969 0.40625-2.4609 0.097656-3.6875-0.17188-0.67578-0.16406-1.3047-0.29297-1.9766-0.12891-0.66406-0.625-1.1367-0.83984-1.7539-0.97656-2.8242 1.375-5.3359 0.97656-8.0273-0.22656-1.5312-0.54688-2.9648 0.85547-4.0859l0.10156-0.69922c0-1.8516 0.24219-3.1445 0.87109-4.8867 0.16797-0.46094 0.80859-1.5 0.63281-1.9844-0.14453-0.40234-0.85938-0.59375-1.457-0.59375-0.23828 0-0.45703 0.03125-0.61328 0.089844-1.0703 0.41016-1.9023 3.4805-3.3516 3.4805-0.03125 0-0.0625 0-0.09375-0.003906-1.5625-0.14453 0.4375-3.6094 1.0234-4.1914 0.90625-0.89844 1.5391-1.207 1.9961-2.5469 0.31641-0.93359 0.87109-1.6328 1.1914-2.5117l0.097656-0.10156c-0.039062-1.125 0.32031-2.2852 0.82031-3.2852 0.24219-0.48828 0.72656-0.8125 0.96875-1.2461 0.23828-0.42578 0.16406-0.94141 0.50391-1.293 0.14844 0.52734 0.27344 1.1523 0.77344 1.4375 0.44922-0.71484 1.8398-2.1758 2.6211-2.3516 0.40625 1.2109-0.83203 1.9844-0.41797 3.2539 1.2695-0.39062 1.375-2.4062 2.2461-3.2383 0.82812-0.79297 2.0898-1.207 3.2227-1.2422h0.09375c0.37891 0 0.83203 0.066407 1.2461 0.066407 0.21094 0 0.41406-0.015626 0.58984-0.066407 0.65234-0.1875 1.0781-0.83594 1.707-1.0977 0.37109-0.15625 0.76953-0.21875 1.1719-0.21875 0.75391 0 1.5273 0.23047 2.1875 0.52734h0.10156c0.60156 0.10938 1.5898 0.82422 2.2578 0.82422 0.074219 0 0.14453-0.007813 0.21094-0.027344 0.93359-0.28516-0.070313-1.582 1.2422-1.793 0.050781-0.007813 0.11328-0.011719 0.17969-0.011719 0.89453 0 2.9336 0.73438 4.2891 0.73438 0.62109 0 1.1016-0.15625 1.2578-0.60547-0.48438-0.21484-0.78125-0.31641-1.168-0.73437-0.17578-0.1875-0.17578-0.57031-0.35156-0.73438-0.26172-0.23437-0.59375-0.17187-0.85156-0.36719-0.84766-0.65234-0.36328-1.1367-0.75-2.0586-0.25-0.58594-0.52344-0.76172-0.83594-0.76172-0.44922 0-0.98047 0.35938-1.625 0.35938h-0.046875c-0.98438-0.027344-1.7109-0.84766-2.8125-0.90234-1.7734-0.085938-0.53516-0.59375-1.0117-1.7656-0.23047-0.56641-0.67578-0.74609-1.1758-0.74609-0.64062 0-1.375 0.28906-1.8789 0.44922-0.91406 0.28516-1.8633 0.66016-2.8008 0.76562-1.9766 0.23047-3.6953-0.03125-5.625 0.76953-1.3086 0.54297-1.9883 2.0508-3.4219 2.1211-0.046875 0.003906-0.097657 0.003906-0.14844 0.003906-0.74219 0-1.7422-0.23047-2.625-0.23047-0.51172 0-0.98047 0.078125-1.3359 0.32812h-0.097656c-0.058594-1.0156-0.57422-1.9375-1.3477-2.4883-0.78516-0.55859-2.0469-1.5469-3.0391-1.6016-0.039063-0.003906-0.078125-0.003906-0.11719-0.003906-0.94531 0-1.6953 0.62891-2.5938 0.83203-0.21094 0.046874-0.38672 0.070312-0.53516 0.070312-0.84766 0-0.74609-0.74219-0.73828-1.6953-0.070313-0.50391-1.0781-1.8008-1.4883-1.9961-0.13281-0.0625-0.25781-0.09375-0.37109-0.09375-0.71094 0-1.0664 1.1094-1.7227 1.4961-0.73047 0.42969-1.6875 0.80859-2.4688 1.1719-0.84766 0.39453-1.4844 1.0195-2.3203 1.418-0.76953 0.36719-1.6445 0.35547-2.418 0.69531-0.95312 0.42188-1.5078 1.3242-2.4688 1.8008-0.82812 0.41016-1.5234 0.51953-2.1953 0.51953-0.77344 0-1.5117-0.14453-2.375-0.14453-0.23438 0-0.47266 0.011719-0.72656 0.039063-0.375 0.039062-0.58594 0.19922-0.76562 0.19922-0.13672 0-0.25391-0.089844-0.41016-0.39453-0.18359-0.35938 0.074219-0.96875 0.18359-1.293 0.09375-0.28516 0.82422-1.2031 0.67578-1.418-0.042969-0.0625-0.11328-0.085938-0.19922-0.085938-0.33984 0-0.92969 0.40234-1.1484 0.48438l-0.79688 0.19922c-0.89453 0.10156-4.2227 1.9102-6.0547 1.9102-0.51562 0-0.91406-0.14453-1.1016-0.51172-0.60156-1.1719 2.3047-2.4766 2.9453-2.9805 1.4375-1.1328 2.25-2.543 3.2656-4.0078 1.0625-1.5352 2.0859-2.6641 3.8359-3.4727h0.10156c1.2812-0.85156 2.2188-2.1328 3.7344-2.6406 1.0781-0.35938 2.3711-0.21094 3.3867-0.74609 0.32031-0.16797 1.3906-0.92188 1.0312-1.4062-0.078125-0.10547-0.20312-0.14453-0.35156-0.14453-0.39063 0-0.95703 0.25781-1.2852 0.25781-0.023437 0-0.046875 0-0.066406-0.003906-0.90625-0.12109-1.2109-1.082-1.9648-1.4414-0.25781-0.125-0.53906-0.16797-0.82812-0.16797-0.49609 0-1.0156 0.13672-1.4688 0.23828-0.94531 0.21484-1.5898 0.41797-2.3125 0.41797-0.38281 0-0.78906-0.058594-1.2734-0.20312-0.50391-0.15234-0.95703-0.22656-1.3828-0.22656-0.85547 0-1.6133 0.30078-2.5 0.88281-0.39453 0.26172-0.97656 0.83203-1.5234 0.83203-0.074219 0-0.14844-0.011719-0.22266-0.035156-0.67969-0.21875-0.27734-1-0.94531-1.3789-0.066406-0.035157-0.14062-0.050781-0.21875-0.050781-0.16797 0-0.35938 0.058593-0.52734 0.058593-0.066406 0-0.12891-0.007812-0.1875-0.035156-0.36719-0.16016-0.51953-0.65234-0.89453-0.83984-0.36719-0.1875-0.75391-0.039062-1.1133-0.19922-0.40625-0.17969-0.54688-0.66797-1.043-0.74219-0.042969-0.007813-0.082031-0.007813-0.12109-0.007813-0.47266 0-0.69531 0.42969-1.1797 0.4375h-0.023438c-0.6875 0-0.58203-0.37109-1.0273-0.82812-0.62891-0.64453-1.1328-0.69922-1.8984-0.69922-0.13281 0-0.27734 0-0.42969 0.003906h-0.027344c-1.4609 0-1.2773-0.42188-2.2695-1.293-0.60547-0.53125-1.457-0.23047-1.9922-0.69922l-0.59766 0.5h-0.058594c-0.44531 0-0.86328 0.10937-1.3086 0.10937-0.074219 0-0.14844-0.003906-0.22656-0.011718-0.67969-0.0625-1.0273-0.38281-1.6172-0.59375-0.58984-0.21484-1.2734-0.16797-1.8672-0.39844-0.76562-0.29688-1.0781-0.74609-1.9492-0.80078-0.035156-0.003906-0.074219-0.003906-0.10938-0.003906-0.35156 0-0.66797 0.097656-0.96484 0.097656-0.26953 0-0.52344-0.082031-0.76172-0.39453-0.16797-0.21875 0.058593-0.66406-0.14063-0.94141-0.21094-0.29297-0.60547-0.19141-0.8125-0.36328-0.54297-0.45312-0.67578-1.3438-1.3945-1.3438-0.058593 0-0.12109 0.007813-0.19141 0.019532-0.69531 0.13281-0.95312 1.1289-1.7773 1.1289h-0.054687c0.03125-0.80859-0.19531-1.5938-1.082-1.5938-0.070312 0-0.14453 0.003906-0.22266 0.015625-2.7148 0.089843-5.3555 0.10547-8.0273 0.10547-1.5898 0-3.1914-0.007813-4.8242-0.007813-100.9-3.7227-148.73-17.352-193.49-27.426zm260.41 48.93v0.097657 0.003906zm89.684 152.23c-0.007812 0.007812-0.015624 0.015625-0.019531 0.019531 0.003907 0.046875 0.011719 0.089844 0.019531 0.13281z"/>
  <use x="70" y="644" xlink:href="#t"/>
  <use x="90.550781" y="644" xlink:href="#b"/>
  <use x="104.359375" y="644" xlink:href="#a"/>
  <use x="123.347656" y="644" xlink:href="#k"/>
  <use x="142.242188" y="644" xlink:href="#c"/>
  <use x="155.628906" y="644" xlink:href="#a"/>
  <use x="174.617188" y="644" xlink:href="#g"/>
  <use x="204.410156" y="644" xlink:href="#j"/>
  <use x="224.453125" y="644" xlink:href="#f"/>
  <use x="252.453125" y="644" xlink:href="#e"/>
  <use x="273.792969" y="644" xlink:href="#a"/>
  <use x="292.78125" y="644" xlink:href="#i"/>
  <use x="312.71875" y="644" xlink:href="#h"/>
  <use x="329.3125" y="644" xlink:href="#a"/>
  <use x="358.054688" y="644" xlink:href="#e"/>
  <use x="379.394531" y="644" xlink:href="#a"/>
  <use x="398.382812" y="644" xlink:href="#s"/>
  <use x="414.679688" y="644" xlink:href="#a"/>
  <use x="433.671875" y="644" xlink:href="#b"/>
  <use x="447.480469" y="644" xlink:href="#a"/>
  <use x="466.46875" y="644" xlink:href="#g"/>
  <use x="486.515625" y="644" xlink:href="#f"/>
  <use x="70" y="672" xlink:href="#r"/>
  <use x="82.183594" y="672" xlink:href="#b"/>
  <use x="95.992188" y="672" xlink:href="#d"/>
  <use x="115.226562" y="672" xlink:href="#q"/>
  <use x="154.152344" y="672" xlink:href="#c"/>
  <use x="167.535156" y="672" xlink:href="#p"/>
  <use x="187.46875" y="672" xlink:href="#a"/>
  <use x="216.207031" y="672" xlink:href="#o"/>
  <use x="239.640625" y="672" xlink:href="#d"/>
  <use x="258.878906" y="672" xlink:href="#n"/>
  <use x="278.8125" y="672" xlink:href="#i"/>
  <use x="308.492188" y="672" xlink:href="#m"/>
  <use x="329.015625" y="672" xlink:href="#b"/>
  <use x="342.820312" y="672" xlink:href="#d"/>
  <use x="362.058594" y="672" xlink:href="#l"/>
  <use x="371.65625" y="672" xlink:href="#a"/>
  <use x="390.648438" y="672" xlink:href="#h"/>
  <use x="407.242188" y="672" xlink:href="#c"/>
 </g>
</svg>
